<svg width="20" height="20" viewBox="0 0 20 20" fill="none" xmlns="http://www.w3.org/2000/svg">
<path d="M16.9467 2.68415L3.22752 7.25832C3.17135 7.277 3.12219 7.31233 3.08658 7.35962C3.05096 7.4069 3.03058 7.46391 3.02814 7.52305C3.0257 7.5822 3.04131 7.64069 3.07291 7.69075C3.1045 7.74081 3.15058 7.78007 3.20502 7.80332L8.24669 9.96415C8.27311 9.97559 8.30204 9.97999 8.33066 9.97692C8.35928 9.97386 8.38663 9.96343 8.41002 9.94665L13.3525 6.41499C13.5059 6.30665 13.6942 6.49499 13.5859 6.64832L10.0542 11.5908C10.0377 11.6142 10.0275 11.6414 10.0246 11.6699C10.0217 11.6983 10.0261 11.7271 10.0375 11.7533L12.1975 16.795C12.2207 16.8495 12.2599 16.8956 12.3099 16.9272C12.3599 16.9589 12.4184 16.9746 12.4775 16.9722C12.5366 16.9699 12.5937 16.9496 12.641 16.9141C12.6883 16.8785 12.7237 16.8295 12.7425 16.7733L17.3167 3.05332C17.3339 3.00189 17.3364 2.94669 17.324 2.8939C17.3116 2.84112 17.2847 2.79284 17.2463 2.75449C17.208 2.71615 17.1597 2.68925 17.1069 2.67683C17.0542 2.6644 16.9981 2.66694 16.9467 2.68415Z" fill="url(#paint0_linear_1193_40980)"/>
<defs>
<linearGradient id="paint0_linear_1193_40980" x1="10.1798" y1="2.66907" x2="10.1798" y2="16.9725" gradientUnits="userSpaceOnUse">
<stop stop-color="white"/>
<stop offset="1" stop-color="#A1A1A1"/>
</linearGradient>
</defs>
</svg>
