<svg width="20" height="20" viewBox="0 0 20 20" fill="none" xmlns="http://www.w3.org/2000/svg">
<path d="M10.5892 1.91083C10.4329 1.7546 10.221 1.66684 10 1.66684C9.77903 1.66684 9.56711 1.7546 9.41083 1.91083L5.03583 6.28583C4.88404 6.443 4.80004 6.6535 4.80194 6.872C4.80384 7.09049 4.89148 7.2995 5.04598 7.45401C5.20049 7.60852 5.4095 7.69616 5.628 7.69806C5.8465 7.69996 6.057 7.61596 6.21417 7.46416L9.16667 4.51166V12.5C9.16667 12.721 9.25446 12.933 9.41074 13.0893C9.56702 13.2455 9.77899 13.3333 10 13.3333C10.221 13.3333 10.433 13.2455 10.5893 13.0893C10.7455 12.933 10.8333 12.721 10.8333 12.5V4.51166L13.7858 7.46416C13.8627 7.54375 13.9547 7.60724 14.0563 7.65091C14.158 7.69459 14.2673 7.71758 14.378 7.71854C14.4886 7.7195 14.5984 7.69841 14.7008 7.65651C14.8032 7.61461 14.8963 7.55273 14.9745 7.47449C15.0527 7.39625 15.1146 7.3032 15.1565 7.20079C15.1984 7.09838 15.2195 6.98864 15.2185 6.87799C15.2176 6.76734 15.1946 6.65799 15.1509 6.55632C15.1072 6.45465 15.0438 6.3627 14.9642 6.28583L10.5892 1.91083ZM3.33333 9.16666C3.55435 9.16666 3.76631 9.25446 3.92259 9.41074C4.07887 9.56702 4.16667 9.77898 4.16667 10V14.5833C4.16667 14.9148 4.29836 15.2328 4.53278 15.4672C4.7672 15.7016 5.08515 15.8333 5.41667 15.8333H14.5833C14.9149 15.8333 15.2328 15.7016 15.4672 15.4672C15.7016 15.2328 15.8333 14.9148 15.8333 14.5833V10C15.8333 9.77898 15.9211 9.56702 16.0774 9.41074C16.2337 9.25446 16.4457 9.16666 16.6667 9.16666C16.8877 9.16666 17.0996 9.25446 17.2559 9.41074C17.4122 9.56702 17.5 9.77898 17.5 10V14.5833C17.5 15.3569 17.1927 16.0987 16.6457 16.6457C16.0987 17.1927 15.3569 17.5 14.5833 17.5H5.41667C4.64312 17.5 3.90125 17.1927 3.35427 16.6457C2.80729 16.0987 2.5 15.3569 2.5 14.5833V10C2.5 9.77898 2.5878 9.56702 2.74408 9.41074C2.90036 9.25446 3.11232 9.16666 3.33333 9.16666Z" fill="url(#paint0_linear_1193_40973)"/>
<defs>
<linearGradient id="paint0_linear_1193_40973" x1="10" y1="1.66684" x2="10" y2="17.5" gradientUnits="userSpaceOnUse">
<stop stop-color="white"/>
<stop offset="1" stop-color="#A1A1A1"/>
</linearGradient>
</defs>
</svg>
