<svg width="20" height="20" viewBox="0 0 20 20" fill="none" xmlns="http://www.w3.org/2000/svg">
<path d="M16.9466 2.68415L3.22746 7.25832C3.17129 7.277 3.12213 7.31233 3.08652 7.35962C3.0509 7.4069 3.03052 7.46391 3.02808 7.52305C3.02564 7.5822 3.04125 7.64069 3.07285 7.69075C3.10444 7.74081 3.15052 7.78007 3.20496 7.80332L8.24663 9.96415C8.27305 9.97559 8.30198 9.97999 8.3306 9.97692C8.35922 9.97386 8.38657 9.96343 8.40996 9.94665L13.3525 6.41499C13.5058 6.30665 13.6941 6.49499 13.5858 6.64832L10.0541 11.5908C10.0376 11.6142 10.0274 11.6414 10.0245 11.6699C10.0216 11.6983 10.0261 11.7271 10.0375 11.7533L12.1975 16.795C12.2206 16.8495 12.2598 16.8956 12.3098 16.9272C12.3598 16.9589 12.4183 16.9746 12.4774 16.9722C12.5366 16.9699 12.5936 16.9496 12.6409 16.9141C12.6883 16.8785 12.7237 16.8295 12.7425 16.7733L17.3166 3.05332C17.3338 3.00189 17.3364 2.94669 17.324 2.8939C17.3115 2.84112 17.2846 2.79284 17.2463 2.75449C17.2079 2.71615 17.1597 2.68925 17.1069 2.67683C17.0541 2.6644 16.9981 2.66694 16.9466 2.68415Z" fill="url(#paint0_linear_70_722)"/>
<defs>
<linearGradient id="paint0_linear_70_722" x1="10.1798" y1="2.66907" x2="10.1798" y2="16.9725" gradientUnits="userSpaceOnUse">
<stop stop-color="white"/>
<stop offset="1" stop-color="#A1A1A1"/>
</linearGradient>
</defs>
</svg>
