<svg width="16" height="16" viewBox="0 0 16 16" fill="none" xmlns="http://www.w3.org/2000/svg">
<g clip-path="url(#clip0_1193_40994)">
<path fill-rule="evenodd" clip-rule="evenodd" d="M0 1.71429C0 1.25963 0.180612 0.823594 0.502103 0.502103C0.823594 0.180612 1.25963 0 1.71429 0L9.71429 0C10.1689 0 10.605 0.180612 10.9265 0.502103C11.248 0.823594 11.4286 1.25963 11.4286 1.71429V3.93029C10.9649 4.30171 10.664 4.8391 10.5897 5.42857H6.57143C6.23374 5.42857 5.89937 5.49508 5.58739 5.62431C5.27541 5.75354 4.99193 5.94295 4.75315 6.18173C4.51438 6.42051 4.32497 6.70398 4.19574 7.01596C4.06651 7.32794 4 7.66232 4 8C4 8.33768 4.06651 8.67206 4.19574 8.98404C4.32497 9.29602 4.51438 9.5795 4.75315 9.81827C4.99193 10.0571 5.27541 10.2465 5.58739 10.3757C5.89937 10.5049 6.23374 10.5714 6.57143 10.5714H10.5897C10.664 11.1609 10.9649 11.6983 11.4286 12.0697V14.2857C11.4286 14.7404 11.248 15.1764 10.9265 15.4979C10.605 15.8194 10.1689 16 9.71429 16H1.71429C1.25963 16 0.823594 15.8194 0.502103 15.4979C0.180612 15.1764 0 14.7404 0 14.2857L0 1.71429ZM12.5291 4.92229C12.3725 4.98717 12.2386 5.09704 12.1444 5.23802C12.0502 5.379 12 5.54474 12 5.71429V6.85714H6.57143C6.26832 6.85714 5.97763 6.97755 5.76331 7.19188C5.54898 7.40621 5.42857 7.6969 5.42857 8C5.42857 8.3031 5.54898 8.5938 5.76331 8.80812C5.97763 9.02245 6.26832 9.14286 6.57143 9.14286H12V10.2857C12.0001 10.4551 12.0505 10.6207 12.1447 10.7615C12.2389 10.9023 12.3727 11.0121 12.5292 11.0769C12.6858 11.1417 12.858 11.1587 13.0242 11.1257C13.1903 11.0927 13.343 11.0112 13.4629 10.8914L15.7486 8.60571C15.9091 8.445 15.9992 8.22714 15.9992 8C15.9992 7.77286 15.9091 7.555 15.7486 7.39429L13.4629 5.10857C13.3431 4.9887 13.1904 4.90702 13.0242 4.87386C12.8581 4.8407 12.6858 4.85756 12.5291 4.92229Z" fill="url(#paint0_linear_1193_40994)"/>
</g>
<defs>
<linearGradient id="paint0_linear_1193_40994" x1="7.99962" y1="0" x2="7.99962" y2="16" gradientUnits="userSpaceOnUse">
<stop stop-color="white"/>
<stop offset="1" stop-color="#A1A1A1"/>
</linearGradient>
<clipPath id="clip0_1193_40994">
<rect width="16" height="16" fill="white"/>
</clipPath>
</defs>
</svg>
