<svg width="20" height="20" viewBox="0 0 20 20" fill="none" xmlns="http://www.w3.org/2000/svg">
<path d="M12.856 2.78668L11.7136 3.43751L12.856 4.08835L13.4808 5.27835L14.1056 4.08835L15.248 3.43751L14.1056 2.78668L13.4816 1.59668L12.856 2.78668ZM1.78082 10C1.78082 5.39751 5.36242 1.66668 9.78082 1.66668H11.168L10.4736 2.91668C10.0104 3.75001 9.78082 4.74085 9.78082 5.83335C9.7807 6.69469 9.9637 7.54538 10.3167 8.32431C10.6697 9.10323 11.1839 9.79106 11.8224 10.3384C12.4608 10.8857 13.2078 11.279 14.0095 11.4899C14.8112 11.7008 15.6478 11.7242 16.4592 11.5583L17.8048 11.2858L17.3704 12.6408C16.8386 14.299 15.8196 15.7408 14.4577 16.7624C13.0958 17.784 11.4599 18.3336 9.78162 18.3333C5.36322 18.3333 1.78082 14.6025 1.78082 10ZM16.5816 5.34668L17.3128 6.73835L18.648 7.50001L17.312 8.26168L16.5808 9.65335L15.8504 8.26168L14.5144 7.50001L15.8504 6.73835L16.5816 5.34668Z" fill="url(#paint0_linear_1193_40949)"/>
<defs>
<linearGradient id="paint0_linear_1193_40949" x1="10.2144" y1="1.59668" x2="10.2144" y2="18.3333" gradientUnits="userSpaceOnUse">
<stop stop-color="white"/>
<stop offset="1" stop-color="#A1A1A1"/>
</linearGradient>
</defs>
</svg>
