<svg width="20" height="20" viewBox="0 0 20 20" fill="none" xmlns="http://www.w3.org/2000/svg">
<path d="M10.4167 5.41667C10.4167 4.3116 10.8557 3.25179 11.6371 2.47039C12.4185 1.68899 13.4783 1.25 14.5834 1.25C15.6884 1.25 16.7482 1.68899 17.5296 2.47039C18.311 3.25179 18.75 4.3116 18.75 5.41667C18.75 6.52174 18.311 7.58154 17.5296 8.36295C16.7482 9.14435 15.6884 9.58333 14.5834 9.58333C13.4783 9.58333 12.4185 9.14435 11.6371 8.36295C10.8557 7.58154 10.4167 6.52174 10.4167 5.41667ZM1.66669 1.66667H9.16669V9.16667H1.66669V1.66667ZM1.66669 10.8333H9.16669V18.3333H1.66669V10.8333ZM10.8334 10.8333H18.3334V18.3333H10.8334V10.8333Z" fill="url(#paint0_linear_1193_40977)"/>
<defs>
<linearGradient id="paint0_linear_1193_40977" x1="10.2084" y1="1.25" x2="10.2084" y2="18.3333" gradientUnits="userSpaceOnUse">
<stop stop-color="white"/>
<stop offset="1" stop-color="#A1A1A1"/>
</linearGradient>
</defs>
</svg>
