<svg width="20" height="20" viewBox="0 0 20 20" fill="none" xmlns="http://www.w3.org/2000/svg">
<path d="M10.5892 1.91086C10.4329 1.75463 10.221 1.66687 10 1.66687C9.77903 1.66687 9.56711 1.75463 9.41083 1.91086L5.03583 6.28586C4.88404 6.44303 4.80004 6.65353 4.80194 6.87203C4.80384 7.09052 4.89148 7.29953 5.04598 7.45404C5.20049 7.60855 5.4095 7.69619 5.628 7.69809C5.8465 7.69999 6.057 7.61599 6.21417 7.46419L9.16667 4.51169V12.5C9.16667 12.721 9.25446 12.933 9.41074 13.0893C9.56702 13.2456 9.77899 13.3334 10 13.3334C10.221 13.3334 10.433 13.2456 10.5893 13.0893C10.7455 12.933 10.8333 12.721 10.8333 12.5V4.51169L13.7858 7.46419C13.8627 7.54378 13.9547 7.60727 14.0563 7.65094C14.158 7.69462 14.2673 7.71761 14.378 7.71857C14.4886 7.71953 14.5984 7.69844 14.7008 7.65654C14.8032 7.61464 14.8963 7.55277 14.9745 7.47452C15.0527 7.39628 15.1146 7.30323 15.1565 7.20082C15.1984 7.09841 15.2195 6.98867 15.2185 6.87803C15.2176 6.76738 15.1946 6.65803 15.1509 6.55636C15.1072 6.45469 15.0438 6.36273 14.9642 6.28586L10.5892 1.91086ZM3.33333 9.16669C3.55435 9.16669 3.76631 9.25449 3.92259 9.41077C4.07887 9.56705 4.16667 9.77901 4.16667 10V14.5834C4.16667 14.9149 4.29836 15.2328 4.53278 15.4672C4.7672 15.7017 5.08515 15.8334 5.41667 15.8334H14.5833C14.9149 15.8334 15.2328 15.7017 15.4672 15.4672C15.7016 15.2328 15.8333 14.9149 15.8333 14.5834V10C15.8333 9.77901 15.9211 9.56705 16.0774 9.41077C16.2337 9.25449 16.4457 9.16669 16.6667 9.16669C16.8877 9.16669 17.0996 9.25449 17.2559 9.41077C17.4122 9.56705 17.5 9.77901 17.5 10V14.5834C17.5 15.3569 17.1927 16.0988 16.6457 16.6458C16.0987 17.1927 15.3569 17.5 14.5833 17.5H5.41667C4.64312 17.5 3.90125 17.1927 3.35427 16.6458C2.80729 16.0988 2.5 15.3569 2.5 14.5834V10C2.5 9.77901 2.5878 9.56705 2.74408 9.41077C2.90036 9.25449 3.11232 9.16669 3.33333 9.16669Z" fill="url(#paint0_linear_67_735)"/>
<defs>
<linearGradient id="paint0_linear_67_735" x1="10" y1="1.66687" x2="10" y2="17.5" gradientUnits="userSpaceOnUse">
<stop stop-color="white"/>
<stop offset="1" stop-color="#A1A1A1"/>
</linearGradient>
</defs>
</svg>
