<svg width="28" height="28" viewBox="0 0 28 28" fill="none" xmlns="http://www.w3.org/2000/svg">
<path d="M14.873 25.918C16.6075 25.918 19.2325 24.617 19.2325 21.172V10.449C19.2325 9.86352 19.326 9.75802 19.8535 9.65252L25.4435 8.42202C25.8535 8.32802 26.1235 8.00002 26.1235 7.59002V3.17202C26.1235 2.51552 25.5955 2.08202 24.951 2.22252L18.74 3.57052C17.9315 3.74602 17.498 4.16802 17.498 4.87102L17.568 17.9025C17.568 18.4415 17.322 18.7925 16.8415 18.8865L14.9785 19.285C12.588 19.7775 11.4745 21.008 11.4745 22.801C11.4745 24.629 12.8925 25.918 14.873 25.918ZM2.674 8.18752H13.15C13.595 8.18752 13.9465 7.82402 13.9465 7.39052C13.9465 6.95702 13.595 6.60552 13.15 6.60552H2.674C2.24 6.60552 1.877 6.95702 1.877 7.39052C1.87908 7.60125 1.96372 7.80276 2.11274 7.95178C2.26176 8.1008 2.46327 8.18544 2.674 8.18752ZM2.674 12.3595H13.15C13.607 12.3595 13.9465 11.996 13.9465 11.551C13.9465 11.117 13.595 10.7775 13.15 10.7775H2.674C2.24 10.7775 1.877 11.1175 1.877 11.551C1.87588 11.6565 1.89564 11.7612 1.93515 11.8591C1.97467 11.9569 2.03315 12.046 2.10723 12.1211C2.18131 12.1963 2.26953 12.256 2.3668 12.297C2.46407 12.3379 2.56847 12.3591 2.674 12.3595ZM2.674 16.531H13.15C13.607 16.531 13.9465 16.1795 13.9465 15.7345C13.9465 15.301 13.595 14.9495 13.15 14.9495H2.674C2.46428 14.9495 2.26315 15.0328 2.11485 15.1811C1.96656 15.3294 1.88325 15.5306 1.88325 15.7403C1.88325 15.95 1.96656 16.1511 2.11485 16.2994C2.26315 16.4477 2.46428 16.531 2.674 16.531Z" fill="white"/>
</svg>
