<svg width="21" height="21" viewBox="0 0 21 21" fill="none" xmlns="http://www.w3.org/2000/svg">
<path d="M10.2449 19.5079C15.0026 19.5079 18.957 15.5619 18.957 10.7958C18.957 6.03819 15.0109 2.08374 10.2533 2.08374C9.80066 2.08374 9.57872 2.35706 9.57872 2.80094V6.11508C9.57872 6.48243 9.82653 6.78126 10.2019 6.78126C10.578 6.78126 10.8342 6.48243 10.8342 6.11508V3.56115C14.5926 3.85998 17.4964 6.96931 17.4964 10.7958C17.5003 11.7496 17.3155 12.6948 16.9526 13.5768C16.5897 14.4589 16.0558 15.2604 15.3818 15.9353C14.7078 16.6101 13.9069 17.1449 13.0252 17.5089C12.1436 17.8729 11.1987 18.0588 10.2449 18.056C6.21319 18.056 2.97631 14.8272 2.98469 10.7958C2.99308 9.00211 3.63375 7.37091 4.70153 6.11508C4.96611 5.78199 4.98324 5.38075 4.70153 5.08155C4.41946 4.77434 3.94133 4.79985 3.63375 5.18432C2.3269 6.70437 1.5328 8.66902 1.5328 10.7958C1.5328 15.5619 5.47886 19.5079 10.2449 19.5079ZM11.6115 12.1111C12.2861 11.4106 12.1498 10.454 11.3382 9.89059L6.81924 6.73862C6.39249 6.43979 5.94825 6.88403 6.24708 7.31078L9.39905 11.8294C9.96283 12.641 10.9195 12.786 11.6115 12.1111Z" fill="#A1A1A1"/>
</svg>
