<svg width="14" height="14" viewBox="0 0 14 14" fill="none" xmlns="http://www.w3.org/2000/svg">
<g clip-path="url(#clip0_117_419)">
<path d="M5.01668 13.125L3.90834 11.2583L1.80834 10.7917L2.01251 8.63333L0.583344 7L2.01251 5.36667L1.80834 3.20833L3.90834 2.74167L5.01668 0.875L7.00001 1.72083L8.98334 0.875L10.0917 2.74167L12.1917 3.20833L11.9875 5.36667L13.4167 7L11.9875 8.63333L12.1917 10.7917L10.0917 11.2583L8.98334 13.125L7.00001 12.2792L5.01668 13.125ZM6.38751 9.07083L9.68334 5.775L8.86668 4.92917L6.38751 7.40833L5.13334 6.18333L4.31668 7L6.38751 9.07083Z" fill="#078200"/>
</g>
<defs>
<clipPath id="clip0_117_419">
<rect width="14" height="14" fill="white"/>
</clipPath>
</defs>
</svg>
