<svg width="14" height="10" viewBox="0 0 14 10" fill="none" xmlns="http://www.w3.org/2000/svg">
<path fill-rule="evenodd" clip-rule="evenodd" d="M5.8275 3.8499H4.3225C2.3219 3.8499 0.7 5.4718 0.7 7.4724C0.7 7.90404 0.871468 8.318 1.17668 8.62322C1.4819 8.92843 1.89586 9.0999 2.3275 9.0999H7.8225C8.25414 9.0999 8.6681 8.92843 8.97332 8.62322C9.27853 8.318 9.45 7.90404 9.45 7.4724C9.45 5.4718 7.8281 3.8499 5.8275 3.8499ZM4.3225 3.1499C1.9355 3.1499 0 5.0854 0 7.4724C0 8.08969 0.245218 8.6817 0.681709 9.11819C1.1182 9.55468 1.71021 9.7999 2.3275 9.7999H7.8225C8.43979 9.7999 9.0318 9.55468 9.46829 9.11819C9.90478 8.6817 10.15 8.08969 10.15 7.4724C10.15 5.0854 8.2145 3.1499 5.8275 3.1499H4.3225Z" fill="#F5C032"/>
<path fill-rule="evenodd" clip-rule="evenodd" d="M3.20598 4.5752C2.93893 5.02775 2.79998 5.579 2.79998 5.95C2.79998 6.04283 2.7631 6.13185 2.69746 6.19749C2.63183 6.26313 2.5428 6.3 2.44998 6.3C2.35715 6.3 2.26813 6.26313 2.20249 6.19749C2.13685 6.13185 2.09998 6.04283 2.09998 5.95C2.09998 5.446 2.27638 4.77225 2.60398 4.2189C2.92703 3.6715 3.45798 3.15 4.19998 3.15C4.2928 3.15 4.38183 3.18687 4.44746 3.25251C4.5131 3.31815 4.54998 3.40717 4.54998 3.5C4.54998 3.59283 4.5131 3.68185 4.44746 3.74749C4.38183 3.81313 4.2928 3.85 4.19998 3.85C3.82198 3.85 3.47758 4.116 3.20598 4.5752ZM4.95598 4.5752C4.68893 5.02775 4.54998 5.579 4.54998 5.95C4.54998 6.04283 4.5131 6.13185 4.44746 6.19749C4.38183 6.26313 4.2928 6.3 4.19998 6.3C4.10715 6.3 4.01813 6.26313 3.95249 6.19749C3.88685 6.13185 3.84998 6.04283 3.84998 5.95C3.84998 5.446 4.02638 4.77225 4.35398 4.2189C4.67703 3.6715 5.20798 3.15 5.94998 3.15C6.0428 3.15 6.13183 3.18687 6.19746 3.25251C6.2631 3.31815 6.29998 3.40717 6.29998 3.5C6.29998 3.59283 6.2631 3.68185 6.19746 3.74749C6.13183 3.81313 6.0428 3.85 5.94998 3.85C5.57198 3.85 5.22758 4.116 4.95598 4.5752ZM7.38148 3.49615C7.42886 3.5759 7.44265 3.6712 7.41981 3.76111C7.39697 3.85102 7.33938 3.92818 7.25968 3.97565C6.98073 4.1419 6.73678 4.46425 6.56108 4.85695C6.38608 5.2465 6.29998 5.6581 6.29998 5.95C6.29998 6.04283 6.2631 6.13185 6.19746 6.19749C6.13183 6.26313 6.0428 6.3 5.94998 6.3C5.85715 6.3 5.76813 6.26313 5.70249 6.19749C5.63685 6.13185 5.59998 6.04283 5.59998 5.95C5.59998 5.544 5.71373 5.03545 5.92198 4.57065C6.12918 4.10865 6.45048 3.64245 6.90198 3.37435C6.98172 3.32696 7.07702 3.31317 7.16693 3.33601C7.25684 3.35885 7.33401 3.41645 7.38148 3.49615ZM10.85 0C10.9428 0 11.0318 0.036875 11.0975 0.102513C11.1631 0.16815 11.2 0.257174 11.2 0.35V5.25C11.2 5.34283 11.1631 5.43185 11.0975 5.49749C11.0318 5.56313 10.9428 5.6 10.85 5.6C10.7571 5.6 10.6681 5.56313 10.6025 5.49749C10.5368 5.43185 10.5 5.34283 10.5 5.25V0.35C10.5 0.257174 10.5368 0.16815 10.6025 0.102513C10.6681 0.036875 10.7571 0 10.85 0ZM13.65 0C13.7428 0 13.8318 0.036875 13.8975 0.102513C13.9631 0.16815 14 0.257174 14 0.35V5.25C14 5.34283 13.9631 5.43185 13.8975 5.49749C13.8318 5.56313 13.7428 5.6 13.65 5.6C13.5571 5.6 13.4681 5.56313 13.4025 5.49749C13.3369 5.43185 13.3 5.34283 13.3 5.25V0.35C13.3 0.257174 13.3369 0.16815 13.4025 0.102513C13.4681 0.036875 13.5571 0 13.65 0ZM12.25 0C12.3428 0 12.4318 0.036875 12.4975 0.102513C12.5631 0.16815 12.6 0.257174 12.6 0.35V5.25C12.6 5.34283 12.5631 5.43185 12.4975 5.49749C12.4318 5.56313 12.3428 5.6 12.25 5.6C12.1571 5.6 12.0681 5.56313 12.0025 5.49749C11.9368 5.43185 11.9 5.34283 11.9 5.25V0.35C11.9 0.257174 11.9368 0.16815 12.0025 0.102513C12.0681 0.036875 12.1571 0 12.25 0Z" fill="#F5C032"/>
<path fill-rule="evenodd" clip-rule="evenodd" d="M12.25 4.2001C12.3428 4.2001 12.4318 4.23697 12.4975 4.30261C12.5631 4.36825 12.6 4.45727 12.6 4.5501V9.4501C12.6 9.54292 12.5631 9.63195 12.4975 9.69759C12.4318 9.76322 12.3428 9.8001 12.25 9.8001C12.1572 9.8001 12.0682 9.76322 12.0025 9.69759C11.9369 9.63195 11.9 9.54292 11.9 9.4501V4.5501C11.9 4.45727 11.9369 4.36825 12.0025 4.30261C12.0682 4.23697 12.1572 4.2001 12.25 4.2001ZM10.5 0.350098V2.2849C10.5 2.54491 10.5724 2.79978 10.709 3.02097C10.8457 3.24216 11.0413 3.42091 11.2738 3.5372L12.6 4.2001V2.2653C12.6 2.00529 12.5276 1.75041 12.391 1.52923C12.2543 1.30804 12.0587 1.12929 11.8262 1.013L10.5 0.350098ZM11.2 1.4827V2.2849C11.2 2.41492 11.2362 2.54237 11.3046 2.65297C11.373 2.76356 11.4708 2.85293 11.5871 2.91105L11.9 3.0675V2.2653C11.9 2.13528 11.8638 2.00782 11.7954 1.89723C11.727 1.78663 11.6292 1.69727 11.5129 1.63915L11.2 1.4827Z" fill="#F5C032"/>
<path fill-rule="evenodd" clip-rule="evenodd" d="M10.5 2.44995V4.38475C10.5 4.64476 10.5724 4.89964 10.709 5.12082C10.8457 5.34201 11.0413 5.52076 11.2738 5.63705L12.6 6.29995V4.36515C12.6 4.10514 12.5276 3.85026 12.391 3.62908C12.2543 3.40789 12.0587 3.22914 11.8262 3.11285L10.5 2.44995ZM11.2 3.58255V4.38475C11.2 4.51477 11.2362 4.64223 11.3046 4.75282C11.373 4.86341 11.4708 4.95278 11.5871 5.0109L11.9 5.16735V4.36515C11.9 4.23513 11.8638 4.10768 11.7954 3.99708C11.727 3.88649 11.6292 3.79712 11.5129 3.739L11.2 3.58255Z" fill="#F5C032"/>
<path fill-rule="evenodd" clip-rule="evenodd" d="M10.5 4.5501V6.4849C10.5 6.74491 10.5724 6.99978 10.709 7.22097C10.8457 7.44216 11.0413 7.62091 11.2738 7.7372L12.6 8.4001V6.4653C12.6 6.20529 12.5276 5.95041 12.391 5.72923C12.2543 5.50804 12.0587 5.32929 11.8262 5.213L10.5 4.5501ZM11.2 5.6827V6.4849C11.2 6.61492 11.2362 6.74237 11.3046 6.85297C11.373 6.96356 11.4708 7.05293 11.5871 7.11105L11.9 7.2675V6.4653C11.9 6.33527 11.8638 6.20782 11.7954 6.09723C11.727 5.98663 11.6292 5.89727 11.5129 5.83915L11.2 5.6827ZM14 0.350098V2.2849C14 2.54491 13.9276 2.79978 13.791 3.02097C13.6543 3.24216 13.4587 3.42091 13.2262 3.5372L11.9 4.2001V2.2653C11.9 2.00529 11.9724 1.75041 12.109 1.52923C12.2457 1.30804 12.4413 1.12929 12.6738 1.013L14 0.350098ZM13.3 1.4827V2.2849C13.3 2.41492 13.2638 2.54237 13.1954 2.65297C13.127 2.76356 13.0292 2.85293 12.9129 2.91105L12.6 3.0675V2.2653C12.6 2.13528 12.6362 2.00782 12.7046 1.89723C12.773 1.78663 12.8708 1.69727 12.9871 1.63915L13.3 1.4827Z" fill="#F5C032"/>
<path fill-rule="evenodd" clip-rule="evenodd" d="M14 2.44995V4.38475C14 4.64476 13.9277 4.89964 13.791 5.12082C13.6543 5.34201 13.4587 5.52076 13.2262 5.63705L11.9 6.29995V4.36515C11.9 4.10514 11.9724 3.85026 12.1091 3.62908C12.2457 3.40789 12.4413 3.22914 12.6739 3.11285L14 2.44995ZM13.3 3.58255V4.38475C13.3 4.51477 13.2638 4.64223 13.1954 4.75282C13.1271 4.86341 13.0292 4.95278 12.9129 5.0109L12.6 5.16735V4.36515C12.6 4.23513 12.6362 4.10768 12.7046 3.99708C12.773 3.88649 12.8708 3.79712 12.9871 3.739L13.3 3.58255Z" fill="#F5C032"/>
<path fill-rule="evenodd" clip-rule="evenodd" d="M14 4.55005V6.48485C14 6.74486 13.9277 6.99974 13.791 7.22092C13.6543 7.44211 13.4587 7.62086 13.2262 7.73715L11.9 8.40005V6.46525C11.9 6.20524 11.9724 5.95036 12.1091 5.72918C12.2457 5.50799 12.4413 5.32924 12.6739 5.21295L14 4.55005ZM13.3 5.68265V6.48485C13.3 6.61487 13.2638 6.74232 13.1954 6.85292C13.1271 6.96351 13.0292 7.05288 12.9129 7.111L12.6 7.26745V6.46525C12.6 6.33523 12.6362 6.20777 12.7046 6.09718C12.773 5.98659 12.8708 5.89722 12.9871 5.8391L13.3 5.68265Z" fill="#F5C032"/>
</svg>
