<svg width="14" height="14" viewBox="0 0 14 14" fill="none" xmlns="http://www.w3.org/2000/svg">
<path d="M8.13941 0.884779L7.15221 6.07157L10.7286 6.08361L5.86049 13.1151L6.84771 7.40878L3.27158 7.39631L8.13941 0.884779ZM8.14008 0.00979297C8.11646 0.00979297 8.09285 0.0106543 8.06966 0.0123906C7.91522 0.024873 7.81283 0.076498 7.69144 0.158092C7.62308 0.203665 7.56145 0.258595 7.50835 0.321279C7.4924 0.340097 7.47736 0.35966 7.46327 0.379904L2.56043 6.86869C2.36683 7.13403 2.33839 7.48426 2.48714 7.77695C2.63568 8.06964 2.93602 8.25514 3.26524 8.25754L5.79093 8.27592L4.99686 12.9543C4.9214 13.3564 5.13577 13.7571 5.51311 13.9186C5.62278 13.9657 5.7409 13.99 5.86026 13.9899C6.13523 13.9899 6.36119 13.8613 6.53074 13.6289L11.4397 6.59744C11.6333 6.33208 11.6615 5.98142 11.513 5.68917C11.3645 5.39648 11.0641 5.21097 10.7349 5.20858L8.20921 5.2042L8.99474 1.09061C9.01138 1.02326 9.01976 0.954139 9.01969 0.884766C9.01969 0.411391 8.64277 0.0255156 8.17114 0.0102031C8.16066 0.00976563 8.15036 0.00976562 8.1401 0.00976562L8.14008 0.00979297Z" fill="white"/>
</svg>
