<svg width="10" height="11" viewBox="0 0 10 11" fill="none" xmlns="http://www.w3.org/2000/svg">
<path d="M6.29766 7.64727C6.28984 7.53745 6.2846 7.42744 6.28196 7.31736C7.42532 7.19777 8.22777 6.9178 8.22777 6.5911C8.22464 6.5911 8.22508 6.57735 8.22508 6.57231C7.37014 5.7851 8.96609 0.194015 5.99533 0.306735C5.71246 0.0896912 5.36352 -0.0180884 5.01032 0.00248263H5.01391C0.989952 0.31315 2.76936 5.59403 1.85207 6.59064H1.85027C1.85386 6.91047 2.62896 7.1854 3.73912 7.3082C3.73598 7.38609 3.72925 7.48277 3.7149 7.64452C3.25424 8.91377 0.143536 8.5582 0 11H10C9.85691 8.55774 6.75877 8.91331 6.29766 7.64727Z" fill="white"/>
</svg>
