<svg width="10" height="13" viewBox="0 0 10 13" fill="none" xmlns="http://www.w3.org/2000/svg">
<path d="M4.875 12.1667C2.47313 12.1667 0.5 10.2633 0.5 7.82025C0.5 7.22058 0.530625 6.57775 0.863125 5.5785C1.19562 4.57925 1.26242 4.45033 1.61388 3.83317C1.76408 5.09229 2.56763 5.61729 2.77179 5.77421C2.77179 5.61088 3.25771 3.80633 3.99475 2.72629C4.71838 1.66667 5.70246 0.971625 6.27938 0.5C6.27938 1.39542 6.53108 2.72658 6.89188 3.405C7.25238 4.08313 7.32004 4.10792 7.77067 4.6125C8.22129 5.11708 8.42779 5.27313 8.80462 5.88563C9.18146 6.49813 9.25 7.31392 9.25 7.91358C9.25 10.3566 7.27687 12.1667 4.875 12.1667Z" stroke="#FD4B28" stroke-linejoin="round"/>
</svg>
