<svg width="10" height="10" viewBox="0 0 10 10" fill="none" xmlns="http://www.w3.org/2000/svg">
<path d="M3.50887 0.0730764C3.20991 -0.0243588 2.88838 -0.0243588 2.58941 0.0730764C2.39609 0.136153 2.23404 0.246409 2.07507 0.380767C1.92277 0.51051 1.74944 0.683329 1.54073 0.892558L0.895103 1.5382C0.684853 1.74794 0.511524 1.92178 0.381271 2.07511C0.246404 2.23409 0.13615 2.39614 0.0730753 2.58998C-0.0243578 2.88896 -0.0243578 3.21049 0.0730753 3.50895C0.13615 3.7028 0.246404 3.86433 0.380759 4.02331C0.511011 4.17715 0.684853 4.35048 0.89459 4.56023L5.4401 9.10584C5.64984 9.31558 5.82368 9.48943 5.9765 9.61917C6.13547 9.75404 6.29751 9.8643 6.49136 9.92686C6.78981 10.0243 7.11185 10.0243 7.4103 9.92737C7.60414 9.8643 7.76619 9.75404 7.92516 9.61968C8.07849 9.48891 8.25233 9.31507 8.46207 9.10533L9.1082 8.45969C9.3164 8.25097 9.48973 8.07815 9.61947 7.92533C9.75383 7.76636 9.86408 7.60431 9.92716 7.41098C10.0243 7.11218 10.0243 6.7903 9.92716 6.4915C9.86408 6.29816 9.75383 6.1356 9.61947 5.97714C9.48922 5.8233 9.31538 5.64996 9.10564 5.44022L4.56013 0.89461C4.35039 0.684867 4.17655 0.511022 4.02322 0.38128C3.86425 0.246409 3.7022 0.136153 3.50887 0.0730764ZM7.57748 5.00022L8.12157 5.54381L7.22262 6.44278C7.14971 6.51072 7.05328 6.5477 6.95364 6.54595C6.854 6.54419 6.75893 6.50382 6.68847 6.43335C6.618 6.36289 6.57764 6.26782 6.57588 6.16818C6.57412 6.06854 6.61111 5.9721 6.67904 5.89919L7.57748 5.00022ZM5.11806 4.33818L6.01701 3.43921L6.56058 3.98331L5.66215 4.88228C5.62665 4.91899 5.5842 4.94827 5.53727 4.96841C5.49033 4.98854 5.43986 4.99913 5.38879 4.99955C5.33773 4.99997 5.28709 4.99021 5.23983 4.97085C5.19257 4.95149 5.14964 4.92291 5.11355 4.88678C5.07745 4.85065 5.04892 4.8077 5.0296 4.76042C5.01029 4.71315 5.00058 4.6625 5.00105 4.61143C5.00151 4.56036 5.01215 4.50989 5.03232 4.46298C5.0525 4.41607 5.08182 4.37364 5.11857 4.33818M4.45705 1.87871L5.00011 2.42229L4.10168 3.32126C4.06647 3.35905 4.02401 3.38936 3.97683 3.41038C3.92965 3.4314 3.87872 3.4427 3.82708 3.44361C3.77544 3.44453 3.72415 3.43503 3.67626 3.41568C3.62837 3.39634 3.58486 3.36755 3.54834 3.33102C3.51182 3.2945 3.48303 3.251 3.46369 3.20311C3.44434 3.15522 3.43484 3.10392 3.43575 3.05228C3.43666 3.00063 3.44797 2.9497 3.46899 2.90253C3.49001 2.85535 3.52032 2.81289 3.5581 2.77767L4.45705 1.87871Z" fill="white"/>
</svg>
