<svg width="14" height="14" viewBox="0 0 14 14" fill="none" xmlns="http://www.w3.org/2000/svg">
<path d="M6.41663 9.91675H7.58329V6.41675H6.41663V9.91675ZM6.99996 5.25008C7.16524 5.25008 7.30388 5.19408 7.41588 5.08208C7.52788 4.97008 7.58368 4.83164 7.58329 4.66675C7.5829 4.50186 7.5269 4.36341 7.41529 4.25141C7.30368 4.13941 7.16524 4.08341 6.99996 4.08341C6.83468 4.08341 6.69624 4.13941 6.58463 4.25141C6.47302 4.36341 6.41702 4.50186 6.41663 4.66675C6.41624 4.83164 6.47224 4.97028 6.58463 5.08266C6.69702 5.19505 6.83546 5.25086 6.99996 5.25008ZM6.99996 12.8334C6.19302 12.8334 5.43468 12.6802 4.72496 12.3737C4.01524 12.0673 3.39788 11.6518 2.87288 11.1272C2.34788 10.6026 1.93235 9.98519 1.62629 9.27508C1.32024 8.56497 1.16702 7.80664 1.16663 7.00008C1.16624 6.19353 1.31946 5.43519 1.62629 4.72508C1.93313 4.01497 2.34865 3.39761 2.87288 2.873C3.3971 2.34839 4.01446 1.93286 4.72496 1.62641C5.43546 1.31997 6.19379 1.16675 6.99996 1.16675C7.80613 1.16675 8.56446 1.31997 9.27496 1.62641C9.98546 1.93286 10.6028 2.34839 11.127 2.873C11.6513 3.39761 12.067 4.01497 12.3742 4.72508C12.6814 5.43519 12.8345 6.19353 12.8333 7.00008C12.8321 7.80664 12.6789 8.56497 12.3736 9.27508C12.0683 9.98519 11.6528 10.6026 11.127 11.1272C10.6013 11.6518 9.9839 12.0675 9.27496 12.3743C8.56601 12.6812 7.80768 12.8342 6.99996 12.8334ZM6.99996 11.6667C8.30274 11.6667 9.40621 11.2147 10.3104 10.3105C11.2145 9.40633 11.6666 8.30286 11.6666 7.00008C11.6666 5.6973 11.2145 4.59383 10.3104 3.68966C9.40621 2.7855 8.30274 2.33341 6.99996 2.33341C5.69718 2.33341 4.59371 2.7855 3.68954 3.68966C2.78538 4.59383 2.33329 5.6973 2.33329 7.00008C2.33329 8.30286 2.78538 9.40633 3.68954 10.3105C4.59371 11.2147 5.69718 11.6667 6.99996 11.6667Z" fill="white"/>
</svg>
