<svg width="14" height="14" viewBox="0 0 14 14" fill="none" xmlns="http://www.w3.org/2000/svg">
<path d="M1.16663 11.0834V7.58342C1.16663 7.32092 1.2201 7.08272 1.32704 6.86883C1.43399 6.65494 1.57496 6.46536 1.74996 6.30008V4.66675C1.74996 4.18064 1.9201 3.76744 2.26038 3.42716C2.60065 3.08689 3.01385 2.91675 3.49996 2.91675H5.83329C6.0569 2.91675 6.26593 2.95816 6.46038 3.041C6.65482 3.12383 6.83468 3.23797 6.99996 3.38341C7.16524 3.23758 7.3451 3.12344 7.53954 3.041C7.73399 2.95855 7.94302 2.91714 8.16663 2.91675H10.5C10.9861 2.91675 11.3993 3.08689 11.7395 3.42716C12.0798 3.76744 12.25 4.18064 12.25 4.66675V6.30008C12.425 6.46536 12.5659 6.65494 12.6729 6.86883C12.7798 7.08272 12.8333 7.32092 12.8333 7.58342V11.0834H11.6666V9.91675H2.33329V11.0834H1.16663ZM7.58329 5.83342H11.0833V4.66675C11.0833 4.50147 11.0273 4.36303 10.9153 4.25141C10.8033 4.1398 10.6648 4.0838 10.5 4.08341H8.16663C8.00135 4.08341 7.8629 4.13941 7.75129 4.25141C7.63968 4.36341 7.58368 4.50186 7.58329 4.66675V5.83342ZM2.91663 5.83342H6.41663V4.66675C6.41663 4.50147 6.36063 4.36303 6.24863 4.25141C6.13663 4.1398 5.99818 4.0838 5.83329 4.08341H3.49996C3.33468 4.08341 3.19624 4.13941 3.08463 4.25141C2.97302 4.36341 2.91701 4.50186 2.91663 4.66675V5.83342ZM2.33329 8.75008H11.6666V7.58342C11.6666 7.41814 11.6106 7.27969 11.4986 7.16808C11.3866 7.05647 11.2482 7.00047 11.0833 7.00008H2.91663C2.75135 7.00008 2.6129 7.05608 2.50129 7.16808C2.38968 7.28008 2.33368 7.41853 2.33329 7.58342V8.75008Z" fill="white"/>
</svg>
