<svg width="10" height="11" viewBox="0 0 10 11" fill="none" xmlns="http://www.w3.org/2000/svg">
<path d="M4.97656 0.25C5.53897 0.250448 5.85656 0.409033 5.96094 0.597656L6.02148 0.707031L6.14453 0.724609C6.50442 0.776113 6.72914 0.933075 6.875 1.14062C7.02686 1.35686 7.10756 1.64825 7.13281 1.98047C7.18346 2.64759 7.00434 3.3907 6.88574 3.75781L6.8291 3.93555L6.97266 4.03418C7.01578 4.06865 7.05048 4.11528 7.07031 4.16992C7.0903 4.22523 7.09463 4.28564 7.08301 4.34375L7.0791 4.36523C7.04752 4.63729 6.98147 4.7769 6.93066 4.84375C6.88318 4.90609 6.84773 4.9082 6.84766 4.9082L6.63965 4.92578L6.62012 5.13379L6.61914 5.1416C6.57494 5.58187 6.38963 5.9936 6.09277 6.31055L6.25488 6.46289L6.02539 6.45703C6.02497 6.4707 6.02479 6.48438 6.02441 6.49805L6.00781 7.13184L6.02441 7.11328C6.02891 7.2888 6.03634 7.46448 6.04883 7.63965L6.05176 7.67383L6.06348 7.70703C6.2121 8.11764 6.5643 8.37255 6.93652 8.56445C7.12573 8.662 7.33303 8.74922 7.54004 8.83398C7.75001 8.91996 7.95909 9.00238 8.16699 9.09473C8.58313 9.27958 8.96173 9.4897 9.24512 9.78613C9.47552 10.0272 9.64811 10.3334 9.71875 10.75H0.28125C0.351919 10.3337 0.52453 10.0272 0.755859 9.78613C1.04045 9.48959 1.42178 9.27964 1.83984 9.09473C2.04859 9.00241 2.25896 8.91992 2.46973 8.83398C2.67751 8.74926 2.88535 8.66192 3.0752 8.56445C3.44869 8.37267 3.80222 8.1179 3.95117 7.70703L3.84473 7.66797L3.96387 7.67676C3.99267 7.27679 4.00146 6.8755 3.99023 6.47461L3.9873 6.37793L3.91992 6.30859L3.81152 6.18457C3.57038 5.88681 3.41829 5.52046 3.37695 5.13086L3.35449 4.92578L3.14941 4.9082L3.12695 4.90039C3.11418 4.8931 3.09309 4.87721 3.06836 4.84473C3.03008 4.79429 2.98215 4.70258 2.94727 4.54492L2.91797 4.36426L2.71387 4.3877L2.91504 4.34668C2.90272 4.28787 2.90657 4.22605 2.92676 4.16992C2.94695 4.11399 2.98188 4.06601 3.02637 4.03125L3.1543 3.93164L3.11523 3.77344C2.86428 2.77655 2.82384 1.8955 3.08887 1.27246C3.21838 0.968164 3.4214 0.723103 3.71777 0.548828C4.01692 0.372959 4.42565 0.260696 4.97656 0.25Z" fill="#4586F1" stroke="#4586F1" stroke-width="0.5"/>
</svg>
