<svg width="10" height="10" viewBox="0 0 10 10" fill="none" xmlns="http://www.w3.org/2000/svg">
<g clip-path="url(#clip0_602_499)">
<path d="M6.03984 5.83143C6.77213 5.09935 6.31068 3.45039 5.00859 2.14872C3.70713 0.846849 2.05838 0.385183 1.32609 1.11747C0.593801 1.84977 1.05547 3.49872 2.35734 4.80039C3.65901 6.10206 5.30797 6.56372 6.04005 5.83164" stroke="#2AC372" stroke-linecap="round" stroke-linejoin="round"/>
<path d="M6.03981 3.97179C6.7721 4.70388 6.31043 6.35284 5.00856 7.6545C3.70689 8.95638 2.05814 9.41805 1.32585 8.68575C0.593557 7.95346 1.05522 6.3045 2.3571 5.00284C3.65877 3.70117 5.30772 3.2395 6.03981 3.97159" stroke="#2AC372" stroke-linecap="round" stroke-linejoin="round"/>
<path d="M4.1685 5.83143C3.43621 5.09935 3.89787 3.45039 5.19975 2.14872C6.50142 0.846849 8.15017 0.385183 8.88246 1.11747C9.61475 1.84977 9.15308 3.49872 7.85121 4.80039C6.54954 6.10206 4.90058 6.56372 4.1685 5.83164" stroke="#2AC372" stroke-linecap="round" stroke-linejoin="round"/>
<path d="M4.1685 3.97179C3.43621 4.70388 3.89787 6.35284 5.19975 7.6545C6.50142 8.95638 8.15017 9.41805 8.88246 8.68575C9.61475 7.95346 9.15308 6.3045 7.85121 5.00284C6.54954 3.70117 4.90058 3.2395 4.1685 3.97159" stroke="#2AC372" stroke-linecap="round" stroke-linejoin="round"/>
</g>
<defs>
<clipPath id="clip0_602_499">
<rect width="10" height="10" fill="white"/>
</clipPath>
</defs>
</svg>
