<svg width="20" height="20" viewBox="0 0 20 20" fill="none" xmlns="http://www.w3.org/2000/svg">
<path d="M12.9167 6.875H7.08337C6.85004 6.875 6.66671 6.69167 6.66671 6.45833V5.20833C6.66671 4.975 6.85004 4.79167 7.08337 4.79167H12.9167C13.15 4.79167 13.3334 4.975 13.3334 5.20833V6.45833C13.3334 6.69167 13.15 6.875 12.9167 6.875ZM13.3334 9.375V8.54167C13.3334 8.30833 13.15 8.125 12.9167 8.125H12.0834C11.85 8.125 11.6667 8.30833 11.6667 8.54167V9.375C11.6667 9.60833 11.85 9.79167 12.0834 9.79167H12.9167C13.15 9.79167 13.3334 9.60833 13.3334 9.375ZM8.33337 9.375V8.54167C8.33337 8.30833 8.15004 8.125 7.91671 8.125H7.08337C6.85004 8.125 6.66671 8.30833 6.66671 8.54167V9.375C6.66671 9.60833 6.85004 9.79167 7.08337 9.79167H7.91671C8.15004 9.79167 8.33337 9.60833 8.33337 9.375ZM10.8334 9.375V8.54167C10.8334 8.30833 10.65 8.125 10.4167 8.125H9.58337C9.35004 8.125 9.16671 8.30833 9.16671 8.54167V9.375C9.16671 9.60833 9.35004 9.79167 9.58337 9.79167H10.4167C10.65 9.79167 10.8334 9.60833 10.8334 9.375ZM13.3334 12.0833V11.25C13.3334 11.0167 13.15 10.8333 12.9167 10.8333H12.0834C11.85 10.8333 11.6667 11.0167 11.6667 11.25V12.0833C11.6667 12.3167 11.85 12.5 12.0834 12.5H12.9167C13.15 12.5 13.3334 12.3167 13.3334 12.0833ZM8.33337 12.0833V11.25C8.33337 11.0167 8.15004 10.8333 7.91671 10.8333H7.08337C6.85004 10.8333 6.66671 11.0167 6.66671 11.25V12.0833C6.66671 12.3167 6.85004 12.5 7.08337 12.5H7.91671C8.15004 12.5 8.33337 12.3167 8.33337 12.0833ZM10.8334 12.0833V11.25C10.8334 11.0167 10.65 10.8333 10.4167 10.8333H9.58337C9.35004 10.8333 9.16671 11.0167 9.16671 11.25V12.0833C9.16671 12.3167 9.35004 12.5 9.58337 12.5H10.4167C10.65 12.5 10.8334 12.3167 10.8334 12.0833ZM13.3334 14.7917V13.9583C13.3334 13.725 13.15 13.5417 12.9167 13.5417H12.0834C11.85 13.5417 11.6667 13.725 11.6667 13.9583V14.7917C11.6667 15.025 11.85 15.2083 12.0834 15.2083H12.9167C13.15 15.2083 13.3334 15.025 13.3334 14.7917ZM10.8334 14.7917V13.9583C10.8334 13.725 10.65 13.5417 10.4167 13.5417H7.08337C6.85004 13.5417 6.66671 13.725 6.66671 13.9583V14.7917C6.66671 15.025 6.85004 15.2083 7.08337 15.2083H10.4167C10.65 15.2083 10.8334 15.025 10.8334 14.7917ZM16.0417 16.25V3.75C16.0417 2.71667 15.2 1.875 14.1667 1.875H5.83337C4.80004 1.875 3.95837 2.71667 3.95837 3.75V16.25C3.95837 17.2833 4.80004 18.125 5.83337 18.125H14.1667C15.2 18.125 16.0417 17.2833 16.0417 16.25ZM14.1667 3.125C14.5084 3.125 14.7917 3.40833 14.7917 3.75V16.25C14.7917 16.5917 14.5084 16.875 14.1667 16.875H5.83337C5.49171 16.875 5.20837 16.5917 5.20837 16.25V3.75C5.20837 3.40833 5.49171 3.125 5.83337 3.125H14.1667Z" fill="white"/>
</svg>
