<svg width="16" height="16" viewBox="0 0 16 16" fill="none" xmlns="http://www.w3.org/2000/svg">
<path d="M6.02774 3.68208C6.89496 2.49985 8.66052 2.49985 9.52774 3.68208L10.0255 4.36004C11.1007 5.8263 11.7741 7.54803 11.979 9.35467C12.0725 10.1819 11.8697 11.0154 11.4066 11.7073C10.9436 12.3991 10.2503 12.9044 9.44996 13.1334L8.95219 13.276C8.18456 13.4951 7.37092 13.4951 6.6033 13.276L6.10552 13.1334C5.30516 12.9044 4.61188 12.3991 4.14885 11.7073C3.68582 11.0154 3.48301 10.1819 3.57645 9.35467C3.78156 7.54797 4.4552 5.82623 5.53061 4.36004L6.02774 3.68208Z" stroke="#F56567"/>
</svg>
