<svg width="14" height="14" viewBox="0 0 14 14" fill="none" xmlns="http://www.w3.org/2000/svg">
<g clip-path="url(#clip0_610_756)">
<path d="M10.958 1.75L12.4209 6.125H13.125V7H12.9746C12.8835 7.25977 12.7559 7.49674 12.5918 7.71094C12.4277 7.92513 12.2363 8.1097 12.0176 8.26465C11.7988 8.4196 11.5618 8.53809 11.3066 8.62012C11.0514 8.70215 10.7826 8.74544 10.5 8.75C10.222 8.75 9.9554 8.70898 9.7002 8.62695C9.44499 8.54492 9.20801 8.42643 8.98926 8.27148C8.77051 8.11654 8.5791 7.93197 8.41504 7.71777C8.25098 7.50358 8.12109 7.26432 8.02539 7H7.875V6.125H8.5791L10.042 1.75H7V11.3887C7.76107 11.4388 8.48112 11.6097 9.16016 11.9014C9.83919 12.193 10.4613 12.6009 11.0264 13.125H12.25V14H0.875V13.125H2.09863C2.65918 12.6055 3.27897 12.1999 3.95801 11.9082C4.63704 11.6165 5.35938 11.4434 6.125 11.3887V1.75H3.08301L4.5459 6.125H5.25V7H5.09961C5.00846 7.25977 4.88086 7.49674 4.7168 7.71094C4.55273 7.92513 4.36133 8.1097 4.14258 8.26465C3.92383 8.4196 3.68685 8.53809 3.43164 8.62012C3.17643 8.70215 2.90755 8.74544 2.625 8.75C2.34701 8.75 2.0804 8.70898 1.8252 8.62695C1.56999 8.54492 1.33301 8.42643 1.11426 8.27148C0.895508 8.11654 0.704102 7.93197 0.540039 7.71777C0.375977 7.50358 0.246094 7.26432 0.150391 7H0V6.125H0.704102L2.16699 1.75H0V0.875H6.125V0H7V0.875H13.125V1.75H10.958ZM2.625 3.13086L1.62695 6.125H3.62305L2.625 3.13086ZM2.625 7.875C2.93945 7.875 3.23112 7.79753 3.5 7.64258C3.76888 7.48763 3.98307 7.27344 4.14258 7H1.10742C1.26693 7.27344 1.48112 7.48763 1.75 7.64258C2.01888 7.79753 2.31055 7.875 2.625 7.875ZM9.59766 13.125C9.14193 12.8379 8.65658 12.6214 8.1416 12.4756C7.62663 12.3298 7.10026 12.2546 6.5625 12.25C6.02474 12.25 5.49837 12.3229 4.9834 12.4688C4.46842 12.6146 3.98307 12.8333 3.52734 13.125H9.59766ZM10.5 3.13086L9.50195 6.125H11.498L10.5 3.13086ZM10.5 7.875C10.8145 7.875 11.1061 7.79753 11.375 7.64258C11.6439 7.48763 11.8581 7.27344 12.0176 7H8.98242C9.14193 7.27344 9.35612 7.48763 9.625 7.64258C9.89388 7.79753 10.1855 7.875 10.5 7.875Z" fill="white"/>
</g>
<defs>
<clipPath id="clip0_610_756">
<rect width="14" height="14" fill="white"/>
</clipPath>
</defs>
</svg>
