<svg width="14" height="14" viewBox="0 0 14 14" fill="none" xmlns="http://www.w3.org/2000/svg">
<g clip-path="url(#clip0_610_758)">
<path d="M14 0V0.4375C14 1.26693 13.9271 2.04167 13.7812 2.76172C13.6354 3.48177 13.4098 4.16309 13.1045 4.80566C12.7992 5.44824 12.4209 6.05892 11.9697 6.6377C11.5186 7.21647 10.9854 7.78385 10.3701 8.33984L9.06445 12.25H7V10.6982C6.37109 11.0674 5.73535 11.4229 5.09277 11.7646L2.23535 8.90723C2.57715 8.26465 2.93262 7.62891 3.30176 7H1.75V4.93555L5.66016 3.63672C6.21159 3.02148 6.77669 2.486 7.35547 2.03027C7.93424 1.57454 8.5472 1.19629 9.19434 0.895508C9.84147 0.594727 10.5228 0.371419 11.2383 0.225586C11.9538 0.0797526 12.7285 0.00455729 13.5625 0H14ZM3.81445 6.125C3.94661 5.91536 4.07878 5.70801 4.21094 5.50293C4.3431 5.29785 4.48438 5.09505 4.63477 4.89453L2.625 5.56445V6.125H3.81445ZM5.25684 10.6777C5.48926 10.5456 5.72168 10.4157 5.9541 10.2881C6.18652 10.1605 6.41895 10.0283 6.65137 9.8916L4.1084 7.34863C3.97624 7.58105 3.84635 7.81348 3.71875 8.0459C3.59115 8.27832 3.45898 8.51302 3.32227 8.75L5.25684 10.6777ZM9.10547 9.36523C8.90495 9.51107 8.70215 9.65007 8.49707 9.78223C8.29199 9.91439 8.08464 10.0488 7.875 10.1855V11.375H8.43555L9.10547 9.36523ZM10.3564 7.12988C10.8076 6.67871 11.1995 6.2207 11.5322 5.75586C11.8649 5.29102 12.1475 4.80339 12.3799 4.29297C12.6123 3.78255 12.7855 3.24707 12.8994 2.68652C13.0133 2.12598 13.0863 1.52441 13.1182 0.881836C12.4801 0.904622 11.8809 0.97526 11.3203 1.09375C10.7598 1.21224 10.2243 1.3877 9.71387 1.62012C9.20345 1.85254 8.71354 2.13281 8.24414 2.46094C7.77474 2.78906 7.31217 3.18099 6.85645 3.63672C6.40527 4.07878 5.99284 4.54362 5.61914 5.03125C5.24544 5.51888 4.89453 6.03385 4.56641 6.57617L7.42383 9.43359C7.96159 9.10547 8.47428 8.75456 8.96191 8.38086C9.44954 8.00716 9.91439 7.59017 10.3564 7.12988ZM8.75 7C8.50846 7 8.28288 6.95443 8.07324 6.86328C7.86361 6.77214 7.67676 6.64681 7.5127 6.4873C7.34863 6.3278 7.22331 6.14323 7.13672 5.93359C7.05013 5.72396 7.00456 5.49609 7 5.25C7 5.00846 7.04557 4.78288 7.13672 4.57324C7.22786 4.36361 7.35319 4.17676 7.5127 4.0127C7.6722 3.84863 7.85677 3.72331 8.06641 3.63672C8.27604 3.55013 8.50391 3.50456 8.75 3.5C8.99154 3.5 9.21712 3.54557 9.42676 3.63672C9.63639 3.72786 9.82324 3.85319 9.9873 4.0127C10.1514 4.1722 10.2767 4.35677 10.3633 4.56641C10.4499 4.77604 10.4954 5.00391 10.5 5.25C10.5 5.49154 10.4544 5.71712 10.3633 5.92676C10.2721 6.13639 10.1468 6.32324 9.9873 6.4873C9.8278 6.65137 9.64323 6.77669 9.43359 6.86328C9.22396 6.94987 8.99609 6.99544 8.75 7ZM8.75 4.375C8.62695 4.375 8.51302 4.39779 8.4082 4.44336C8.30339 4.48893 8.21224 4.55046 8.13477 4.62793C8.05729 4.7054 7.99349 4.79883 7.94336 4.9082C7.89323 5.01758 7.87044 5.13151 7.875 5.25C7.875 5.37305 7.89779 5.48698 7.94336 5.5918C7.98893 5.69661 8.05046 5.78776 8.12793 5.86523C8.2054 5.94271 8.29883 6.00651 8.4082 6.05664C8.51758 6.10677 8.63151 6.12956 8.75 6.125C8.87305 6.125 8.98698 6.10221 9.0918 6.05664C9.19661 6.01107 9.28776 5.94954 9.36523 5.87207C9.44271 5.7946 9.50651 5.70117 9.55664 5.5918C9.60677 5.48242 9.62956 5.36849 9.625 5.25C9.625 5.12695 9.60221 5.01302 9.55664 4.9082C9.51107 4.80339 9.44954 4.71224 9.37207 4.63477C9.2946 4.55729 9.20117 4.49349 9.0918 4.44336C8.98242 4.39323 8.86849 4.37044 8.75 4.375ZM1.75 10.5C1.99154 10.5 2.21712 10.5456 2.42676 10.6367C2.63639 10.7279 2.82324 10.8532 2.9873 11.0127C3.15137 11.1722 3.27669 11.3568 3.36328 11.5664C3.44987 11.776 3.49544 12.0039 3.5 12.25C3.5 12.4915 3.45443 12.7171 3.36328 12.9268C3.27214 13.1364 3.14681 13.3232 2.9873 13.4873C2.8278 13.6514 2.64323 13.7767 2.43359 13.8633C2.22396 13.9499 1.99609 13.9954 1.75 14H0V12.25C0 12.0085 0.0455729 11.7829 0.136719 11.5732C0.227865 11.3636 0.35319 11.1768 0.512695 11.0127C0.672201 10.8486 0.856771 10.7233 1.06641 10.6367C1.27604 10.5501 1.50391 10.5046 1.75 10.5ZM1.75 13.125C1.87305 13.125 1.98698 13.1022 2.0918 13.0566C2.19661 13.0111 2.28776 12.9495 2.36523 12.8721C2.44271 12.7946 2.50651 12.7012 2.55664 12.5918C2.60677 12.4824 2.62956 12.3685 2.625 12.25C2.625 12.127 2.60221 12.013 2.55664 11.9082C2.51107 11.8034 2.44954 11.7122 2.37207 11.6348C2.2946 11.5573 2.20117 11.4935 2.0918 11.4434C1.98242 11.3932 1.86849 11.3704 1.75 11.375C1.62695 11.375 1.51302 11.3978 1.4082 11.4434C1.30339 11.4889 1.21224 11.5505 1.13477 11.6279C1.05729 11.7054 0.99349 11.7988 0.943359 11.9082C0.893229 12.0176 0.870443 12.1315 0.875 12.25V13.125H1.75Z" fill="white"/>
</g>
<defs>
<clipPath id="clip0_610_758">
<rect width="14" height="14" fill="white"/>
</clipPath>
</defs>
</svg>
