<svg width="14" height="14" viewBox="0 0 14 14" fill="none" xmlns="http://www.w3.org/2000/svg">
<path d="M6.70833 10.5L7.58333 8.16667L4.7355 7L6.4855 4.95833L8.2355 6.41667H10.2772M8.16667 4.08333C8.47609 4.08333 8.77283 3.96042 8.99162 3.74162C9.21042 3.52283 9.33333 3.22609 9.33333 2.91667C9.33333 2.60725 9.21042 2.3105 8.99162 2.09171C8.77283 1.87292 8.47609 1.75 8.16667 1.75C7.85725 1.75 7.5605 1.87292 7.34171 2.09171C7.12292 2.3105 7 2.60725 7 2.91667C7 3.22609 7.12292 3.52283 7.34171 3.74162C7.5605 3.96042 7.85725 4.08333 8.16667 4.08333ZM10.5 12.25C10.9641 12.25 11.4092 12.0656 11.7374 11.7374C12.0656 11.4092 12.25 10.9641 12.25 10.5C12.25 10.0359 12.0656 9.59075 11.7374 9.26256C11.4092 8.93437 10.9641 8.75 10.5 8.75C10.0359 8.75 9.59075 8.93437 9.26256 9.26256C8.93437 9.59075 8.75 10.0359 8.75 10.5C8.75 10.9641 8.93437 11.4092 9.26256 11.7374C9.59075 12.0656 10.0359 12.25 10.5 12.25ZM3.5 12.25C3.96413 12.25 4.40925 12.0656 4.73744 11.7374C5.06563 11.4092 5.25 10.9641 5.25 10.5C5.25 10.0359 5.06563 9.59075 4.73744 9.26256C4.40925 8.93437 3.96413 8.75 3.5 8.75C3.03587 8.75 2.59075 8.93437 2.26256 9.26256C1.93437 9.59075 1.75 10.0359 1.75 10.5C1.75 10.9641 1.93437 11.4092 2.26256 11.7374C2.59075 12.0656 3.03587 12.25 3.5 12.25Z" stroke="white" stroke-linecap="round" stroke-linejoin="round"/>
</svg>
