<svg width="30" height="30" viewBox="0 0 30 30" fill="none" xmlns="http://www.w3.org/2000/svg">
<g clip-path="url(#clip0_541_493)">
<path d="M25.6135 11.7472C25.6135 14.5638 24.4946 17.265 22.503 19.2567C20.5114 21.2483 17.8101 22.3672 14.9935 22.3672C12.1769 22.3672 9.4757 21.2483 7.48406 19.2567C5.49242 17.265 4.37354 14.5638 4.37354 11.7472C4.37354 8.9306 5.49242 6.22936 7.48406 4.23772C9.4757 2.24609 12.1769 1.1272 14.9935 1.1272C17.8101 1.1272 20.5114 2.24609 22.503 4.23772C24.4946 6.22936 25.6135 8.9306 25.6135 11.7472Z" stroke="white" stroke-linecap="round" stroke-linejoin="round"/>
<path d="M5.79427 16.9564L1.07141 25.1379L6.17355 23.7707L7.54284 28.8729L11.64 21.7757M24.2057 16.9564L28.9286 25.1379L23.8243 23.7707L22.4571 28.8729L18.36 21.7757M15.4286 5.98072L16.8921 8.92501C16.9239 8.99981 16.9754 9.06462 17.041 9.11253C17.1066 9.16045 17.184 9.18969 17.265 9.19715L20.5157 9.69001C20.6087 9.7019 20.6964 9.74009 20.7685 9.80008C20.8406 9.86008 20.894 9.9394 20.9226 10.0287C20.9512 10.118 20.9537 10.2137 20.9298 10.3044C20.9059 10.395 20.8567 10.477 20.7878 10.5407L18.3857 12.8207C18.3497 12.8887 18.3308 12.9645 18.3308 13.0414C18.3308 13.1184 18.3497 13.1942 18.3857 13.2622L18.8464 16.4936C18.8664 16.5872 18.8587 16.6847 18.8242 16.774C18.7897 16.8633 18.7299 16.9407 18.6522 16.9966C18.5745 17.0525 18.4821 17.0846 18.3865 17.0889C18.2908 17.0931 18.196 17.0695 18.1136 17.0207L15.2207 15.4907C15.1459 15.457 15.0649 15.4396 14.9828 15.4396C14.9008 15.4396 14.8197 15.457 14.745 15.4907L11.8521 17.0207C11.7698 17.0681 11.6755 17.0908 11.5806 17.0858C11.4857 17.0809 11.3942 17.0486 11.3172 16.9929C11.2403 16.9372 11.181 16.8605 11.1466 16.7719C11.1123 16.6833 11.1043 16.5866 11.1236 16.4936L11.6678 13.2622C11.6914 13.1873 11.696 13.1076 11.681 13.0306C11.666 12.9535 11.632 12.8813 11.5821 12.8207L9.18427 10.5214C9.11983 10.457 9.07452 10.3759 9.05338 10.2873C9.03224 10.1986 9.03609 10.1059 9.06451 10.0193C9.09293 9.93267 9.14481 9.85566 9.21437 9.79677C9.28393 9.73789 9.36846 9.69945 9.45855 9.68572L12.7071 9.21429C12.7881 9.20683 12.8655 9.17759 12.9311 9.12967C12.9968 9.08176 13.0482 9.01696 13.08 8.94215L14.5436 5.99787C14.5825 5.9143 14.6441 5.84333 14.7214 5.79304C14.7987 5.74274 14.8885 5.71513 14.9807 5.71335C15.0729 5.71156 15.1637 5.73567 15.2429 5.78294C15.3221 5.8302 15.3864 5.89873 15.4286 5.98072Z" stroke="white" stroke-linecap="round" stroke-linejoin="round"/>
</g>
<defs>
<clipPath id="clip0_541_493">
<rect width="30" height="30" fill="white"/>
</clipPath>
</defs>
</svg>
