<svg width="30" height="30" viewBox="0 0 30 30" fill="none" xmlns="http://www.w3.org/2000/svg">
<path fill-rule="evenodd" clip-rule="evenodd" d="M13.9812 3.82259C14.1987 3.94134 14.3375 4.17259 14.3375 4.43134V10.2288C14.3376 10.3334 14.314 10.4366 14.2683 10.5306C14.2226 10.6246 14.156 10.7069 14.0737 10.7713L12.1737 12.2413C13.0675 12.8626 14.3375 13.7426 14.3375 15.0001C14.3375 16.3313 13.18 17.2701 12.1412 17.8526L14.0537 19.2101C14.2325 19.3413 14.3375 19.5476 14.3375 19.7726V25.5701C14.3379 25.6924 14.3057 25.8126 14.2441 25.9182C14.1826 26.0239 14.094 26.1113 13.9875 26.1713C13.8815 26.2287 13.7617 26.2554 13.6414 26.2485C13.5211 26.2417 13.405 26.2016 13.3062 26.1326L6.02497 21.0226C5.53953 20.6955 5.13956 20.2569 4.85856 19.7434C4.57757 19.2299 4.42374 18.6565 4.40997 18.0713C4.40997 17.2313 4.77997 16.2188 6.01747 15.0263C5.07122 14.2201 4.40997 13.2401 4.40997 11.9301C4.40997 10.3613 6.22997 9.01759 7.34747 8.29634L13.285 3.88259C13.3838 3.80894 13.5012 3.7643 13.6239 3.7537C13.7467 3.7431 13.87 3.76696 13.98 3.82259M7.21747 10.0638C6.73372 10.4601 5.73497 11.2088 5.73497 11.9301C5.73497 12.9351 6.34372 13.5576 7.05872 14.1463L9.04372 12.8426L10.3675 13.6376L8.16997 14.9938L10.8962 16.9588C11.625 16.6488 13.015 15.9663 13.015 15.0001C13.015 13.9751 11.3862 13.3401 10.665 12.8426C9.51997 12.0488 7.95872 11.3076 7.22372 10.0638H7.21747ZM7.08497 15.8676C5.87997 16.9663 5.73497 17.7001 5.73497 18.0713C5.73497 18.5538 5.97997 19.3488 6.75997 19.8913H6.76747L7.32997 20.2888C7.50956 19.7986 7.79118 19.3522 8.15622 18.9789C8.52125 18.6057 8.96138 18.3142 9.44747 18.1238L10.4262 19.0901C9.63247 19.4476 8.81247 20.1688 8.65997 20.5138C8.57082 20.7083 8.53008 20.9215 8.54122 21.1351L13.015 24.2788V20.1288C11.0314 18.7176 9.05471 17.2968 7.08497 15.8663M8.30247 9.26759C8.75247 10.2338 10.175 10.8701 11.0087 11.4388L13.015 9.88384V5.76884L8.30247 9.27509V9.26759ZM16.0125 3.82759C16.1173 3.77078 16.2357 3.74388 16.3547 3.74983C16.4738 3.75579 16.5889 3.79436 16.6875 3.86134L23.6375 8.63884C24.795 9.42634 25.5887 10.4526 25.5887 11.9288C25.5887 13.1401 24.8275 14.1588 24.0012 14.9463C24.7287 15.5413 25.5887 16.5338 25.5887 18.0701C25.5887 19.9888 24.1925 20.9088 23.2725 21.5113L22.975 21.7038C22.4712 22.0538 18.5737 24.7876 16.7 26.1313C16.6012 26.2003 16.4851 26.2404 16.3648 26.2473C16.2445 26.2541 16.1247 26.2274 16.0187 26.1701C15.9108 26.111 15.8207 26.0241 15.7578 25.9183C15.6949 25.8126 15.6616 25.6919 15.6612 25.5688V19.7713C15.6612 19.5588 15.7612 19.3538 15.9262 19.2288L17.7862 17.7913C16.7537 17.1501 15.6612 16.4163 15.6612 14.9988C15.6612 13.7551 16.9387 12.7888 17.8125 12.1338L15.9462 10.7838C15.8581 10.7202 15.7864 10.6367 15.7369 10.54C15.6873 10.4433 15.6614 10.3362 15.6612 10.2276V4.43134C15.6594 4.30944 15.6912 4.1894 15.7531 4.08442C15.8151 3.97944 15.9049 3.89359 16.0125 3.83634V3.82759ZM18.9637 12.9613C18.455 13.3313 16.985 14.2051 16.985 14.9988C16.985 16.0988 18.6 16.7063 19.3087 17.1438L19.3337 17.1563C20.5787 18.0101 22.1337 18.7388 22.9487 20.0888C23.7162 19.5513 24.265 19.0501 24.265 18.0701C24.265 16.9913 23.5837 16.3101 22.955 15.8401L20.9562 17.3888L19.6325 16.7063L21.8162 15.0188L18.9712 12.9676L18.9637 12.9613ZM22.9012 14.1388L16.985 9.87009V5.70259L21.2537 8.63384C21.9487 9.11009 19.9037 10.6851 19.6325 10.9101L20.9562 11.5926C21.6975 10.9763 22.2537 10.5601 22.5912 9.55384L22.9087 9.77259C23.6837 10.3013 24.265 10.9176 24.265 11.9301C24.265 12.8301 23.5112 13.5838 22.9025 14.1401M21.8437 20.8438C21.2487 19.7851 19.9437 19.2163 18.9987 18.5613L16.9862 20.1163V24.2663L21.8512 20.8438H21.8437Z" fill="white"/>
</svg>
