<svg width="30" height="30" viewBox="0 0 30 30" fill="none" xmlns="http://www.w3.org/2000/svg">
<path d="M13.75 27.1624V24.9999H7.02C6.44417 24.9999 5.96375 24.8074 5.57875 24.4224C5.19375 24.0374 5.00083 23.5566 5 22.9799V7.01993C5 6.4441 5.19292 5.96368 5.57875 5.57868C5.96458 5.19368 6.445 5.00076 7.02 4.99993H13.75V2.83743C13.75 2.65993 13.81 2.51118 13.93 2.39118C14.05 2.27118 14.1988 2.21118 14.3763 2.21118C14.5538 2.21118 14.7021 2.27118 14.8213 2.39118C14.9404 2.51118 15 2.65951 15 2.83618V27.1637C15 27.3404 14.94 27.4887 14.82 27.6087C14.7 27.7287 14.5512 27.7887 14.3737 27.7887C14.1962 27.7887 14.0479 27.7287 13.9287 27.6087C13.8096 27.4887 13.75 27.3404 13.75 27.1637M18.365 24.9999C18.1883 24.9999 18.04 24.9399 17.92 24.8199C17.8 24.6999 17.74 24.5512 17.74 24.3737C17.74 24.1962 17.8 24.0478 17.92 23.9287C18.04 23.8095 18.1883 23.7499 18.365 23.7499H23.2212C23.4129 23.7499 23.5892 23.6699 23.75 23.5099C23.9108 23.3499 23.9908 23.1733 23.99 22.9799V7.01993C23.99 6.82743 23.91 6.65076 23.75 6.48993C23.59 6.3291 23.4137 6.2491 23.2212 6.24993H18.365C18.1883 6.24993 18.04 6.18993 17.92 6.06993C17.8 5.94993 17.74 5.80118 17.74 5.62368C17.74 5.44618 17.8 5.29785 17.92 5.17868C18.04 5.05951 18.1883 4.99993 18.365 4.99993H23.2212C23.7962 4.99993 24.2767 5.19285 24.6625 5.57868C25.0483 5.96451 25.2408 6.44493 25.24 7.01993V22.9812C25.24 23.5562 25.0475 24.0366 24.6625 24.4224C24.2775 24.8083 23.7971 25.0008 23.2212 24.9999H18.365ZM18.365 15.6249C18.1883 15.6249 18.04 15.5649 17.92 15.4449C17.8 15.3249 17.74 15.1762 17.74 14.9987C17.74 14.8212 17.8 14.6728 17.92 14.5537C18.04 14.4345 18.1883 14.3749 18.365 14.3749H21.49C21.6675 14.3749 21.8162 14.4349 21.9362 14.5549C22.0562 14.6749 22.1158 14.8237 22.115 15.0012C22.1142 15.1787 22.0546 15.327 21.9362 15.4462C21.8179 15.5653 21.6692 15.6249 21.49 15.6249H18.365ZM18.365 11.2499C18.1883 11.2499 18.04 11.1899 17.92 11.0699C17.8 10.9499 17.74 10.8012 17.74 10.6237C17.74 10.4462 17.8 10.2978 17.92 10.1787C18.04 10.0595 18.1883 9.99993 18.365 9.99993H21.49C21.6675 9.99993 21.8162 10.0599 21.9362 10.1799C22.0562 10.2999 22.1158 10.4487 22.115 10.6262C22.1142 10.8037 22.0546 10.952 21.9362 11.0712C21.8179 11.1903 21.6692 11.2499 21.49 11.2499H18.365ZM10 19.9999H13.125C13.3025 19.9999 13.4508 19.9399 13.57 19.8199C13.6892 19.6999 13.7492 19.5512 13.75 19.3737C13.7508 19.1962 13.6908 19.0478 13.57 18.9287C13.4492 18.8095 13.3008 18.7499 13.125 18.7499H10C9.8225 18.7499 9.67417 18.8099 9.555 18.9299C9.43583 19.0499 9.37583 19.1987 9.375 19.3762C9.37417 19.5537 9.43417 19.702 9.555 19.8212C9.67583 19.9403 9.82417 19.9999 10 19.9999ZM10 15.6249H13.125C13.3025 15.6249 13.4508 15.5649 13.57 15.4449C13.6892 15.3249 13.7492 15.1762 13.75 14.9987C13.7508 14.8212 13.6908 14.6728 13.57 14.5537C13.4492 14.4345 13.3008 14.3749 13.125 14.3749H10C9.8225 14.3749 9.67417 14.4349 9.555 14.5549C9.43583 14.6749 9.37583 14.8237 9.375 15.0012C9.37417 15.1787 9.43417 15.327 9.555 15.4462C9.67583 15.5653 9.82417 15.6249 10 15.6249ZM10 11.2499H13.125C13.3025 11.2499 13.4508 11.1899 13.57 11.0699C13.6892 10.9499 13.7492 10.8012 13.75 10.6237C13.7508 10.4462 13.6908 10.2978 13.57 10.1787C13.4492 10.0595 13.3008 9.99993 13.125 9.99993H10C9.8225 9.99993 9.67417 10.0599 9.555 10.1799C9.43583 10.2999 9.37583 10.4487 9.375 10.6262C9.37417 10.8037 9.43417 10.952 9.555 11.0712C9.67583 11.1903 9.82417 11.2499 10 11.2499Z" fill="white"/>
</svg>
