<svg width="30" height="30" viewBox="0 0 30 30" fill="none" xmlns="http://www.w3.org/2000/svg">
<g clip-path="url(#clip0_541_499)">
<path d="M25.985 4.79006C25.8588 4.65881 25.7388 4.52381 25.6087 4.39381C25.4796 4.26631 25.3463 4.14048 25.2087 4.01631C22.4418 1.42579 18.7903 -0.0107459 15 6.05286e-05C13.0294 -0.00496761 11.0773 0.380633 9.25659 1.13458C7.43589 1.88852 5.78267 2.99585 4.3925 4.39256C-1.3275 10.1126 -1.45 19.3376 4.01625 25.2101C4.13875 25.3451 4.26375 25.4784 4.39125 25.6101C4.52125 25.7388 4.65375 25.8601 4.7875 25.9851C7.55695 28.5738 11.209 30.0096 15 30.0001C19.0075 30.0001 22.775 28.4413 25.6087 25.6101C31.3288 19.8901 31.45 10.6651 25.985 4.79006ZM5.16625 5.16631C6.45489 3.87119 7.98746 2.84434 9.67535 2.1451C11.3633 1.44587 13.173 1.08813 15 1.09256C18.5312 1.09256 21.8625 2.40256 24.4375 4.79006L23.1863 6.04256C20.9536 3.99249 18.0311 2.85809 15 2.86506C13.4056 2.86043 11.8261 3.17227 10.3531 3.7825C8.88005 4.39274 7.54278 5.28924 6.41875 6.42006C5.28831 7.54405 4.39212 8.88116 3.78211 10.354C3.17209 11.8267 2.86037 13.4059 2.865 15.0001C2.865 18.0601 3.99 20.9413 6.0425 23.1863L4.78875 24.4376C-0.25125 18.9888 -0.126251 10.4588 5.16625 5.16631ZM22.4137 6.81381V6.81631L21.145 8.08381C19.4566 6.56971 17.2679 5.73357 15 5.73631C13.7832 5.7331 12.5779 5.9713 11.4538 6.43712C10.3297 6.90294 9.30912 7.58713 8.45125 8.45006C7.58794 9.30798 6.90344 10.3287 6.4374 11.453C5.97136 12.5773 5.73304 13.783 5.73625 15.0001C5.73291 17.2667 6.56869 19.4543 8.0825 21.1413L6.815 22.4113C4.96999 20.3848 3.95096 17.7407 3.95875 15.0001C3.95472 13.5496 4.23858 12.1127 4.79389 10.7727C5.34919 9.43273 6.1649 8.21626 7.19375 7.19381C8.2162 6.16496 9.43267 5.34925 10.7727 4.79395C12.1126 4.23864 13.5495 3.95478 15 3.95881C17.7663 3.95881 20.3762 4.97006 22.4137 6.81381ZM23.1713 15.0001C23.1713 17.1813 22.32 19.2338 20.7763 20.7776C19.2325 22.3213 17.1825 23.1726 15 23.1726C13.0231 23.1729 11.1139 22.4525 9.63 21.1463L9.62875 21.1413C9.49125 21.0238 9.35375 20.9063 9.22375 20.7776C9.09674 20.6462 8.97458 20.5103 8.8575 20.3701C7.54872 18.8878 6.82833 16.9774 6.8325 15.0001C6.8325 12.8176 7.68125 10.7663 9.225 9.22381C9.98196 8.46348 10.882 7.8606 11.8732 7.44996C12.8644 7.03933 13.9271 6.82906 15 6.83131C16.9988 6.83131 18.8813 7.55131 20.3688 8.85631C20.5075 8.97631 20.6488 9.09381 20.7763 9.22506C20.9046 9.35589 21.0275 9.49089 21.145 9.63006C22.4532 11.1127 23.1739 13.0227 23.1713 15.0001ZM8.855 21.9176C10.5429 23.4318 12.7324 24.2684 15 24.2663C16.2172 24.2697 17.4229 24.0312 18.5471 23.5647C19.6713 23.0982 20.6916 22.413 21.5488 21.5488C22.4127 20.6916 23.0977 19.6712 23.564 18.547C24.0303 17.4228 24.2686 16.2171 24.265 15.0001C24.2672 12.7327 23.4322 10.5445 21.92 8.85506L23.1863 7.59006C25.0299 9.61693 26.0488 12.2601 26.0425 15.0001C26.0465 16.4508 25.7626 17.888 25.207 19.2282C24.6515 20.5684 23.8355 21.7851 22.8063 22.8076C21.7842 23.837 20.5678 24.653 19.2277 25.2084C17.8877 25.7637 16.4506 26.0473 15 26.0426C12.2592 26.0494 9.61501 25.0306 7.5875 23.1863L8.855 21.9176ZM24.8338 24.8338C23.5454 26.1293 22.0129 27.1563 20.3249 27.8553C18.6369 28.5544 16.827 28.9116 15 28.9063C11.4988 28.9162 8.12469 27.5949 5.56125 25.2101L6.81625 23.9588C9.0482 26.0099 11.9712 27.1445 15.0025 27.1363C16.5971 27.1406 18.1767 26.8284 19.6497 26.2177C21.1227 25.607 22.4599 24.7101 23.5838 23.5788C24.714 22.455 25.6101 21.1181 26.2201 19.6455C26.8302 18.1729 27.142 16.594 27.1375 15.0001C27.145 11.969 26.01 9.0465 23.9587 6.81506L25.21 5.56256C30.2487 11.0113 30.1288 19.5401 24.8338 24.8338Z" fill="white"/>
</g>
<defs>
<clipPath id="clip0_541_499">
<rect width="30" height="30" fill="white"/>
</clipPath>
</defs>
</svg>
