<svg width="30" height="30" viewBox="0 0 30 30" fill="none" xmlns="http://www.w3.org/2000/svg">
<path d="M17.7126 26.1125C22.9426 25.7663 27.1076 21.5413 27.4501 16.2375C27.5164 15.2 27.5164 14.125 27.4501 13.0875C27.1076 7.78504 22.9426 3.56254 17.7126 3.21379C15.9063 3.09475 14.094 3.09475 12.2877 3.21379C7.05765 3.56129 2.89265 7.78504 2.55015 13.0888C2.48393 14.1377 2.48393 15.1898 2.55015 16.2388C2.67515 18.17 3.5289 19.9588 4.53515 21.4688C5.1189 22.525 4.7339 23.8438 4.12515 24.9975C3.68765 25.8288 3.46765 26.2438 3.6439 26.5438C3.8189 26.8438 4.21265 26.8538 4.9989 26.8725C6.55515 26.91 7.6039 26.47 8.4364 25.8563C8.90765 25.5075 9.1439 25.3338 9.3064 25.3138C9.4689 25.2938 9.79015 25.4263 10.4302 25.6888C11.0052 25.9263 11.6739 26.0725 12.2864 26.1138C14.0677 26.2313 15.9289 26.2313 17.7139 26.1138L17.7126 26.1125Z" stroke="white" stroke-width="1.5" stroke-linejoin="round"/>
<path d="M9.375 18.75L11.6775 11.8425C11.7353 11.6701 11.8458 11.5203 11.9934 11.4141C12.141 11.3079 12.3182 11.2508 12.5 11.2508C12.6818 11.2508 12.859 11.3079 13.0066 11.4141C13.1542 11.5203 13.2647 11.6701 13.3225 11.8425L15.625 18.75M19.375 11.25V18.75M10.625 16.25H14.375" stroke="white" stroke-width="1.5" stroke-linecap="round" stroke-linejoin="round"/>
</svg>
