<svg width="46" height="46" viewBox="0 0 46 46" fill="none" xmlns="http://www.w3.org/2000/svg">
<g clip-path="url(#clip0_511_414)">
<path d="M43.6784 22.6047C43.6676 31.9557 43.6748 33.2171 43.6748 34.4785C43.6784 36.8432 42.6362 38.8377 40.9507 40.5124C37.5259 43.9121 32.7103 45.3711 27.9234 45.7377C26.317 45.8599 24.6926 45.8994 23.0826 45.8994C21.4726 45.8994 19.8482 45.8599 18.2418 45.7377C13.4549 45.3711 8.63932 43.9121 5.21447 40.5124C3.529 38.8377 2.49041 36.8468 2.49041 34.4785C2.49041 33.2171 2.494 31.9521 2.48682 22.6047H43.6784Z" fill="#FCC21B"/>
<path d="M43.6999 18.2814C40.4368 13.9905 35.1396 10.7453 30.0329 9.97987C28.5199 9.75347 26.9925 9.65284 25.4724 9.57018C22.0296 9.38331 18.443 9.52706 15.0254 10.0517C11.2807 10.6267 7.21973 12.341 4.27285 15.0111C3.35645 15.8413 2.70598 16.9446 2.18848 18.0694C1.00254 20.6605 0.481445 23.6253 0.481445 26.4752C0.481445 28.3655 0.790508 30.2378 2.43645 31.2872C2.90363 31.5855 3.46785 31.5639 3.98535 31.4525C4.77957 31.2764 5.3366 30.8847 6.12723 31.3196C7.29879 31.9592 7.53957 33.3321 8.18645 34.3994C9.35082 36.3149 11.9455 37.1702 13.9939 36.358C16.0747 35.535 17.4979 37.6589 19.2049 38.4424C21.2389 39.3732 23.6827 39.0821 25.6269 38.0902C26.1588 37.8171 26.5433 37.4217 27.0069 37.0408C27.891 36.3077 28.9152 35.8692 30.0544 35.8333C31.5638 35.7866 33.0732 36.4622 34.5682 36.0022C35.8008 35.6285 36.6777 34.5072 37.3282 33.4291C37.8816 32.5127 38.3344 31.3339 39.5311 31.2117C40.735 31.0932 41.7341 32.2647 42.9775 31.8694C45.1805 31.1686 45.504 28.2289 45.5291 26.2488C45.5615 23.8086 45.2129 20.9839 44.0413 18.8169C43.9335 18.63 43.8257 18.4503 43.6999 18.2814Z" fill="#FFF3E0"/>
<path d="M26.9279 15.198C26.8956 15.4065 26.8992 15.6293 26.8992 15.8305C26.8956 16.5421 26.8812 17.2537 26.8633 17.9652C26.8309 19.3883 26.7914 20.8079 26.7914 22.231C26.7914 23.151 26.3961 25.0844 27.485 25.5121C28.5379 25.929 29.8533 25.7097 29.8497 24.2076C29.8461 23.7799 29.8497 23.3522 29.8497 22.9282C29.8497 21.1385 29.8461 19.3524 29.8497 17.5591C29.8497 17.038 29.7922 16.5277 29.7958 16.0066C29.7994 15.5718 29.8137 15.004 29.4975 14.6877C29.2495 14.4397 28.8829 14.3858 28.5631 14.3822C28.1858 14.3715 27.6683 14.3176 27.3269 14.5152C27.0717 14.659 26.9711 14.9177 26.9279 15.198Z" fill="#40C0E7"/>
<path d="M26.885 16.4629C26.3531 16.1395 25.9254 15.6615 25.6631 15.0146C25.4798 14.5618 25.354 13.9725 25.3792 13.4801C25.4403 12.2978 26.0907 11.2053 26.9317 10.4075C27.4276 9.93308 28.0314 9.33652 28.7357 9.20715C30.2307 8.93402 31.2765 11.3814 31.5856 12.4846C32.1462 14.4828 30.9998 16.5779 28.8543 16.7792C28.2937 16.8331 27.3773 16.7576 26.885 16.4629Z" fill="#ED6C30"/>
<path d="M27.6684 16.0389C27.4456 15.8844 27.2695 15.6508 27.1581 15.3381C27.0826 15.1189 27.0287 14.8314 27.0395 14.5942C27.0646 14.0228 27.3377 13.4946 27.6863 13.1064C27.8948 12.8764 28.1463 12.5853 28.441 12.5242C29.0663 12.3913 29.5048 13.5772 29.6306 14.1127C29.8641 15.083 29.3862 16.0964 28.4877 16.1935C28.2577 16.215 27.8732 16.1791 27.6684 16.0389Z" fill="#FCC21B"/>
<path d="M34.9961 8.97C34.9637 9.17844 34.9673 9.40484 34.9673 9.6025C34.9637 10.3177 34.9493 11.0256 34.9314 11.7372C34.899 13.1603 34.8595 14.5798 34.8595 16.003C34.8595 16.923 34.4642 18.8564 35.5531 19.2841C36.6025 19.7009 37.925 19.4817 37.9178 17.9795C37.9142 17.5555 37.9178 17.1278 37.9178 16.7002C37.9178 14.9105 37.9142 13.128 37.9178 11.3311C37.9178 10.81 37.8603 10.2961 37.8639 9.77859C37.8675 9.34015 37.8854 8.77594 37.5656 8.45969C37.3176 8.21172 36.9511 8.16141 36.6312 8.15422C36.2539 8.14344 35.7364 8.08953 35.3986 8.28719C35.1398 8.43094 35.0356 8.68969 34.9961 8.97Z" fill="#40C0E7"/>
<path d="M34.9528 10.235C34.4245 9.91158 33.9933 9.43362 33.7309 8.78674C33.5477 8.33393 33.4255 7.74455 33.447 7.25221C33.5081 6.07346 34.1622 4.97737 34.9995 4.17955C35.4955 3.70518 36.0992 3.10862 36.8036 2.97924C38.2986 2.70612 39.348 5.15346 39.657 6.25674C40.2177 8.25487 39.0677 10.35 36.9222 10.5513C36.3616 10.6052 35.4416 10.5297 34.9528 10.235Z" fill="#ED6C30"/>
<path d="M35.7218 9.8217C35.499 9.67795 35.3193 9.45873 35.2079 9.16404C35.1324 8.9592 35.0785 8.69326 35.0893 8.47045C35.1108 7.93138 35.3875 7.43904 35.7397 7.07607C35.9482 6.86045 36.2033 6.58732 36.498 6.53342C37.1269 6.40763 37.5618 7.5181 37.6947 8.01763C37.9283 8.92685 37.4468 9.8756 36.5483 9.96904C36.3147 9.9906 35.9302 9.95467 35.7218 9.8217Z" fill="#FCC21B"/>
<path d="M20.833 6.1094C20.8006 6.31784 20.8042 6.54425 20.8042 6.7419C20.8006 7.45706 20.7863 8.16503 20.7683 8.87659C20.7359 10.2997 20.6964 11.7192 20.6964 13.1424C20.6964 14.0624 20.3011 15.9958 21.39 16.4235C22.443 16.8403 23.7619 16.6211 23.7547 15.1189C23.7511 14.6949 23.7547 14.2672 23.7547 13.8396C23.7547 12.0499 23.7511 10.2674 23.7547 8.4705C23.7547 7.9494 23.6972 7.4355 23.7008 6.918C23.7044 6.47956 23.7188 5.91534 23.4025 5.59909C23.1545 5.35112 22.788 5.30081 22.4681 5.29362C22.0908 5.28284 21.5733 5.22893 21.2319 5.42659C20.9767 5.57034 20.8725 5.82909 20.833 6.1094Z" fill="#40C0E7"/>
<path d="M20.7897 7.37437C20.2579 7.05094 19.8302 6.57297 19.5679 5.92609C19.3846 5.47328 19.2588 4.8839 19.284 4.39156C19.3451 3.21281 19.9955 2.11672 20.8365 1.3189C21.3324 0.848123 21.9362 0.247966 22.6405 0.122185C24.1355 -0.15094 25.1813 2.2964 25.494 3.39969C26.0546 5.39781 24.9082 7.49297 22.7591 7.69422C22.1985 7.74812 21.2785 7.67265 20.7897 7.37437Z" fill="#ED6C30"/>
<path d="M21.5948 6.96107C21.3612 6.80295 21.1743 6.55857 21.0593 6.23513C20.9767 6.00873 20.9228 5.71045 20.9371 5.46607C20.9623 4.8731 21.2498 4.32685 21.6164 3.92795C21.832 3.69076 22.0979 3.39248 22.4034 3.32779C23.0574 3.19482 23.5174 4.4167 23.654 4.97013C23.902 5.97279 23.3953 7.02216 22.4573 7.12279C22.2129 7.14795 21.8104 7.10842 21.5948 6.96107Z" fill="#FCC21B"/>
<path d="M14.436 14.4469C14.4037 14.6554 14.4073 14.8782 14.4073 15.0794C14.4037 15.791 14.3893 16.5026 14.3713 17.2141C14.339 18.6372 14.2994 20.0568 14.2994 21.4799C14.2994 22.3999 13.9041 24.3333 14.993 24.761C16.0424 25.1779 17.3613 24.9586 17.3577 23.4565C17.3541 23.0288 17.3577 22.6011 17.3577 22.1771C17.3577 20.3874 17.3541 18.6013 17.3577 16.808C17.3577 16.2869 17.3002 15.7766 17.3038 15.2555C17.3074 14.8207 17.3218 14.2529 17.0055 13.9366C16.7576 13.6886 16.3946 13.6347 16.0712 13.6311C15.6938 13.6204 15.1763 13.5665 14.8385 13.7641C14.5798 13.9043 14.4755 14.163 14.436 14.4469Z" fill="#40C0E7"/>
<path d="M14.3894 15.7083C13.8575 15.3849 13.4298 14.9069 13.1675 14.26C12.9842 13.8072 12.8584 13.2178 12.8836 12.7255C12.9447 11.5431 13.5951 10.4506 14.4361 9.65282C14.932 9.17845 15.5394 8.58188 16.2401 8.45251C17.7351 8.17938 18.7809 10.6267 19.0936 11.73C19.6542 13.7281 18.5078 15.8233 16.3623 16.0245C15.8017 16.082 14.8817 16.0066 14.3894 15.7083Z" fill="#ED6C30"/>
<path d="M15.1655 15.295C14.9283 15.1332 14.7379 14.8853 14.6229 14.5547C14.5402 14.3211 14.4827 14.0228 14.4971 13.7712C14.5258 13.1639 14.8169 12.6068 15.1871 12.1972C15.4099 11.9528 15.6794 11.6473 15.9921 11.5826C16.6605 11.4425 17.1277 12.6967 17.2643 13.2609C17.5122 14.2851 17.0019 15.3561 16.0424 15.4603C15.7944 15.4854 15.3847 15.4459 15.1655 15.295Z" fill="#FCC21B"/>
<path d="M7.50729 8.00333C7.47495 8.21536 7.47854 8.43817 7.47854 8.63583C7.47495 9.34739 7.46057 10.059 7.4426 10.7705C7.41026 12.19 7.37073 13.6132 7.37073 15.0363C7.37073 15.9563 6.97542 17.8861 8.06432 18.3174C9.11729 18.7307 10.4362 18.515 10.429 17.0129C10.4254 16.5852 10.429 16.1611 10.429 15.7335C10.429 13.9438 10.4254 12.1577 10.429 10.3644C10.429 9.84333 10.3715 9.33302 10.3751 8.80833C10.3787 8.37349 10.3931 7.80567 10.0768 7.48942C9.82886 7.24145 9.46229 7.18755 9.14245 7.18036C8.76511 7.17317 8.24761 7.11567 7.9062 7.31333C7.65104 7.46067 7.54682 7.72302 7.50729 8.00333Z" fill="#40C0E7"/>
<path d="M7.46064 9.26463C6.92877 8.9412 6.50111 8.46323 6.23877 7.81994C6.05549 7.36713 5.9297 6.77776 5.95486 6.28541C6.01595 5.10307 6.66642 4.01057 7.50736 3.21276C8.0033 2.73838 8.60705 2.13823 9.31142 2.01244C10.8064 1.73932 11.8522 4.18666 12.1649 5.28994C12.7255 7.28807 11.5791 9.38323 9.43361 9.58448C8.87299 9.63479 7.95299 9.55932 7.46064 9.26463Z" fill="#ED6C30"/>
<path d="M8.27645 8.83709C8.05364 8.66818 7.87395 8.41662 7.76255 8.07881C7.68708 7.84162 7.63317 7.53256 7.64395 7.2774C7.66911 6.65928 7.94223 6.08428 8.29442 5.6674C8.50286 5.41943 8.75801 5.10678 9.0527 5.0385C9.68161 4.89475 10.12 6.17772 10.2494 6.75272C10.483 7.80209 10.0015 8.89459 9.09942 9.0024C8.86942 9.03115 8.48489 8.99162 8.27645 8.83709Z" fill="#FCC21B"/>
<path d="M44.0343 18.8169C43.9337 18.6336 43.8258 18.4503 43.6965 18.2814C43.603 18.1592 43.5024 18.0371 43.4054 17.9185C43.5276 18.5222 45.2921 28.9225 22.8276 28.9225C0.589433 28.9225 2.09521 18.7306 2.24615 17.94C2.22459 17.9831 2.20303 18.0263 2.18506 18.0694C0.999121 20.6605 0.478027 23.6253 0.478027 26.4752C0.478027 28.3655 0.78709 30.2378 2.43303 31.2872C2.90021 31.5855 3.46443 31.5639 3.98193 31.4525C4.77615 31.2764 5.33318 30.8847 6.12381 31.3195C7.29537 31.9592 7.53615 33.332 8.18303 34.3994C9.3474 36.3149 11.9421 37.1702 13.9905 36.358C16.0713 35.535 17.4944 37.6589 19.2015 38.4424C21.2355 39.3731 23.6793 39.082 25.6235 38.0902C26.1554 37.817 26.5399 37.4217 27.0035 37.0408C27.8876 36.3077 28.9118 35.8692 30.051 35.8333C31.5604 35.7866 33.0697 36.4622 34.5647 36.0022C35.7974 35.6285 36.6743 34.5072 37.3247 33.4291C37.8782 32.5127 38.331 31.3339 39.5277 31.2117C40.7316 31.0931 41.7307 32.2647 42.9741 31.8694C45.1771 31.1686 45.5005 28.2289 45.5257 26.2488C45.5508 23.8086 45.2058 20.9839 44.0343 18.8169Z" fill="#FFE0B2"/>
</g>
<defs>
<clipPath id="clip0_511_414">
<rect width="46" height="46" fill="white"/>
</clipPath>
</defs>
</svg>
