<svg width="15" height="15" viewBox="0 0 15 15" fill="none" xmlns="http://www.w3.org/2000/svg">
<g clip-path="url(#clip0_501_406)">
<path d="M5.625 6.25L7.66125 7.7775C7.7874 7.87211 7.94465 7.91554 8.10148 7.89908C8.25831 7.88262 8.40312 7.80749 8.50688 7.68875L12.5 3.125" stroke="#2099D6" stroke-width="2" stroke-linecap="round"/>
<path d="M13.125 7.4999C13.125 8.67523 12.7569 9.82104 12.0723 10.7764C11.3877 11.7318 10.421 12.4487 9.30807 12.8265C8.19512 13.2043 6.99178 13.224 5.86707 12.8828C4.74235 12.5416 3.75277 11.8566 3.0373 10.9242C2.32183 9.99169 1.91642 8.85853 1.87801 7.68383C1.8396 6.50913 2.17011 5.3519 2.82314 4.37469C3.47617 3.39747 4.41889 2.64935 5.51892 2.23541C6.61894 1.82147 7.82099 1.76249 8.95625 2.06677" stroke="#2099D6" stroke-width="2" stroke-linecap="round"/>
</g>
<defs>
<clipPath id="clip0_501_406">
<rect width="15" height="15" fill="white"/>
</clipPath>
</defs>
</svg>
