<svg width="24" height="24" viewBox="0 0 24 24" fill="none" xmlns="http://www.w3.org/2000/svg">
<path fill-rule="evenodd" clip-rule="evenodd" d="M19.285 12.645C19.9921 11.9268 20.3849 10.9571 20.377 9.94931C20.3691 8.94149 19.9612 7.97808 19.243 7.27101C18.8874 6.92091 18.4663 6.64427 18.0037 6.45691C17.5412 6.26955 17.0463 6.17512 16.5473 6.17902C15.5395 6.18689 14.5761 6.5948 13.869 7.31301C13.677 7.50501 13.433 7.74068 13.137 8.02001L12.314 8.79501L11.491 8.02001C11.1943 7.74001 10.95 7.50434 10.758 7.31301C10.0454 6.60038 9.07881 6.20002 8.07099 6.20002C7.06317 6.20002 6.09663 6.60038 5.38399 7.31301C3.91599 8.78201 3.89899 11.157 5.32999 12.633L12.314 19.617L19.285 12.645ZM4.53499 6.46501C4.9993 6.00058 5.55056 5.63216 6.15727 5.38081C6.76399 5.12945 7.41427 5.00008 8.07099 5.00008C8.72771 5.00008 9.378 5.12945 9.98472 5.38081C10.5914 5.63216 11.1427 6.00058 11.607 6.46501C11.789 6.64768 12.0247 6.87501 12.314 7.14701C12.602 6.87501 12.8377 6.64734 13.021 6.46401C13.9515 5.51918 15.2192 4.98269 16.5453 4.97256C17.8714 4.96243 19.1472 5.4795 20.092 6.41001C21.0368 7.34052 21.5733 8.60826 21.5834 9.93433C21.5936 11.2604 21.0765 12.5362 20.146 13.481L13.021 20.607C12.8335 20.7945 12.5792 20.8998 12.314 20.8998C12.0488 20.8998 11.7945 20.7945 11.607 20.607L4.47999 13.48C3.56603 12.5374 3.0595 11.2731 3.06979 9.96024C3.08009 8.64734 3.60637 7.39117 4.53499 6.46301V6.46501Z" fill="white"/>
</svg>
