<svg width="36" height="36" viewBox="0 0 36 36" fill="none" xmlns="http://www.w3.org/2000/svg">
<path opacity="0.3" d="M26.4263 2.52283C20.2641 2.52283 18 8.8172 18 8.8172C18 8.8172 15.7669 2.52283 9.5597 2.52283C4.89658 2.52283 -0.419049 6.21845 1.54408 14.6194C3.2372 21.8616 14.2566 30.6422 17.2575 32.9231C14.3888 30.7378 4.23845 22.6181 2.66908 15.9103C0.838138 8.08033 5.79376 4.63783 10.1363 4.63783C15.9188 4.63783 18 10.5047 18 10.5047C18 10.5047 20.1094 4.63783 25.8497 4.63783C30.5438 4.63783 35.1394 8.08033 33.3113 15.9075C31.4831 23.7263 18.0366 33.4688 18.0141 33.4828C18.0141 33.4828 32.4675 23.0175 34.4334 14.6166C36.3966 6.21845 31.4634 2.52283 26.4263 2.52283Z" fill="#D81B60"/>
<path opacity="0.3" d="M33.3113 15.9075C35.1422 8.08313 30.5438 4.63782 25.8497 4.63782C20.1094 4.63782 18 10.5047 18 10.5047C18 10.5047 15.9188 4.63782 10.1363 4.63782C5.79376 4.63782 0.838137 8.08032 2.66908 15.9075C4.23845 22.6153 14.3888 30.7378 17.2575 32.9203C17.7356 33.2831 18.0113 33.4828 18.0141 33.4828C18.0338 33.4688 31.4803 23.7263 33.3113 15.9075Z" fill="#D81B60"/>
<path d="M23.6898 11.9868C19.4091 11.9868 17.8398 16.3603 17.8398 16.3603C17.8398 16.3603 16.2873 11.9868 11.9785 11.9868C8.74133 11.9868 5.04852 14.5546 6.41258 20.3878C7.77664 26.2209 17.851 33.4912 17.851 33.4912C17.851 33.4912 27.8888 26.2237 29.2529 20.3906C30.617 14.5546 27.1885 11.9868 23.6898 11.9868Z" fill="#EF5090"/>
<path d="M11.3176 12.4228C14.6757 12.4228 16.3463 16.034 16.8835 17.4965C16.9595 17.7046 17.252 17.7131 17.3392 17.5078L17.8313 16.3574C17.1395 14.1412 15.2326 11.984 11.9785 11.984C10.6313 11.984 9.20822 12.4312 8.1001 13.3678C9.07604 12.7293 10.2235 12.4228 11.3176 12.4228ZM23.6898 11.9868C22.6323 11.9868 21.7407 12.254 20.9954 12.6562C21.5101 12.4593 22.1373 12.4228 22.7673 12.4228C25.9342 12.4228 28.7664 14.8218 27.4867 20.3737C26.3898 25.1381 19.9745 30.9178 18.0142 33.1228C17.9692 33.1734 17.9354 33.2999 17.9073 33.4462C18.7482 32.8274 27.9451 25.9565 29.2473 20.3906C30.617 14.5546 27.1885 11.9868 23.6898 11.9868Z" fill="#DA2E75"/>
<path d="M8.65975 15.0863C9.391 14.1722 10.7016 13.4157 11.8098 14.2875C12.4088 14.7572 12.1473 15.7247 11.6101 16.1297C10.8282 16.7232 10.1476 17.0803 9.67225 18.0113C9.38538 18.571 9.21381 19.1813 9.12663 19.8057C9.09288 20.0503 8.76944 20.1122 8.6485 19.8957C7.82444 18.4303 7.591 16.4194 8.65975 15.0863ZM20.4019 17.0072C20.0588 17.0072 19.8141 16.6753 19.9407 16.3547C20.1741 15.7669 20.4751 15.1932 20.8351 14.6869C21.3694 13.936 22.3876 13.5 23.0344 13.9528C23.6954 14.4197 23.6082 15.3478 23.1441 15.7978C22.1513 16.7597 20.8969 17.0072 20.4019 17.0072Z" fill="#F386AB"/>
<path opacity="0.3" d="M25.0649 6.93286C19.7802 6.93286 17.8396 12.3329 17.8396 12.3329C17.8396 12.3329 15.9243 6.93286 10.6002 6.93286C6.60083 6.93286 2.03896 10.1025 3.72365 17.3082C5.17771 23.5266 14.6418 31.0613 17.2068 33.0104C14.7768 31.1597 6.19865 24.2944 4.87115 18.6244C3.32427 12.0066 7.51208 9.09286 11.188 9.09286C16.079 9.09286 17.8368 14.0541 17.8368 14.0541C17.8368 14.0541 19.6199 9.09286 24.4743 9.09286C28.4427 9.09286 32.3324 12.0066 30.7855 18.6244C29.2386 25.2366 17.8705 33.4716 17.848 33.4885C17.848 33.4885 30.2455 24.511 31.9302 17.3054C33.6149 10.0997 29.3877 6.93286 25.0649 6.93286ZM17.8508 33.4913C17.848 33.4885 17.6146 33.3197 17.2096 33.0132C17.6146 33.3197 17.8508 33.4913 17.8508 33.4913Z" fill="#D81B60"/>
<path opacity="0.4" d="M30.7884 18.6273C32.3353 12.0095 28.4484 9.0957 24.4772 9.0957C19.6228 9.0957 17.8397 14.057 17.8397 14.057C17.8397 14.057 16.079 9.0957 11.1909 9.0957C7.51779 9.0957 3.32717 12.0066 4.87404 18.6273C6.20154 24.2973 14.7797 31.1626 17.2097 33.0132C17.6147 33.3198 17.8481 33.4913 17.8509 33.4913C17.8734 33.4745 29.2415 25.2395 30.7884 18.6273Z" fill="#D81B60"/>
<path opacity="0.3" d="M25.0649 6.93286C19.7802 6.93286 17.8396 12.3329 17.8396 12.3329C17.8396 12.3329 15.9243 6.93286 10.6002 6.93286C6.60083 6.93286 2.03896 10.1025 3.72365 17.3082C5.17771 23.5266 14.6418 31.0613 17.2068 33.0104C14.7768 31.1597 6.19865 24.2944 4.87115 18.6244C3.32427 12.0066 7.51208 9.09286 11.188 9.09286C16.079 9.09286 17.8368 14.0541 17.8368 14.0541C17.8368 14.0541 19.6199 9.09286 24.4743 9.09286C28.4427 9.09286 32.3324 12.0066 30.7855 18.6244C29.2386 25.2366 17.8705 33.4716 17.848 33.4885C17.848 33.4885 30.2455 24.511 31.9302 17.3054C33.6149 10.0997 29.3877 6.93286 25.0649 6.93286Z" fill="#D81B60"/>
<path opacity="0.3" d="M26.4263 2.52283C20.2641 2.52283 18 8.8172 18 8.8172C18 8.8172 15.7669 2.52283 9.5597 2.52283C4.89658 2.52283 -0.419049 6.21845 1.54408 14.6194C3.2372 21.8616 14.2566 30.6422 17.2575 32.9231C14.3888 30.7378 4.23845 22.6181 2.66908 15.9103C0.838138 8.08033 5.79376 4.63783 10.1363 4.63783C15.9188 4.63783 18 10.5047 18 10.5047C18 10.5047 20.1094 4.63783 25.8497 4.63783C30.5438 4.63783 35.1394 8.08033 33.3113 15.9075C31.4831 23.7263 18.0366 33.4688 18.0141 33.4828C18.0141 33.4828 32.4675 23.0175 34.4334 14.6166C36.3966 6.21845 31.4634 2.52283 26.4263 2.52283Z" fill="#D81B60"/>
<path opacity="0.3" d="M18.014 33.4828C18.0112 33.48 17.7356 33.2803 17.2603 32.9203C17.7356 33.2831 18.014 33.4828 18.014 33.4828Z" fill="#D81B60"/>
<path opacity="0.3" d="M25.0649 6.93286C19.7802 6.93286 17.8396 12.3329 17.8396 12.3329C17.8396 12.3329 15.9243 6.93286 10.6002 6.93286C6.60083 6.93286 2.03896 10.1025 3.72365 17.3082C5.17771 23.5266 14.6418 31.0613 17.2068 33.0104C14.7768 31.1597 6.19865 24.2944 4.87115 18.6244C3.32427 12.0066 7.51208 9.09286 11.188 9.09286C16.079 9.09286 17.8368 14.0541 17.8368 14.0541C17.8368 14.0541 19.6199 9.09286 24.4743 9.09286C28.4427 9.09286 32.3324 12.0066 30.7855 18.6244C29.2386 25.2366 17.8705 33.4716 17.848 33.4885C17.848 33.4885 30.2455 24.511 31.9302 17.3054C33.6149 10.0997 29.3877 6.93286 25.0649 6.93286Z" fill="#D81B60"/>
</svg>
