<svg width="24" height="24" viewBox="0 0 24 24" fill="none" xmlns="http://www.w3.org/2000/svg">
<path fill-rule="evenodd" clip-rule="evenodd" d="M12 1.25C12.1989 1.25 12.3897 1.32902 12.5303 1.46967C12.671 1.61032 12.75 1.80109 12.75 2V4C12.75 4.19891 12.671 4.38968 12.5303 4.53033C12.3897 4.67098 12.1989 4.75 12 4.75C11.8011 4.75 11.6103 4.67098 11.4697 4.53033C11.329 4.38968 11.25 4.19891 11.25 4V2C11.25 1.80109 11.329 1.61032 11.4697 1.46967C11.6103 1.32902 11.8011 1.25 12 1.25ZM5.47 5.47C5.61063 5.32955 5.80125 5.25066 6 5.25066C6.19875 5.25066 6.38937 5.32955 6.53 5.47L6.874 5.813C7.01055 5.95452 7.08606 6.144 7.08426 6.34065C7.08246 6.5373 7.00349 6.72537 6.86437 6.86436C6.72525 7.00335 6.5371 7.08214 6.34045 7.08376C6.1438 7.08537 5.95439 7.00969 5.813 6.873L5.47 6.53C5.32955 6.38937 5.25066 6.19875 5.25066 6C5.25066 5.80125 5.32955 5.61063 5.47 5.47ZM18.53 5.47C18.6705 5.61063 18.7493 5.80125 18.7493 6C18.7493 6.19875 18.6705 6.38937 18.53 6.53L18.187 6.874C18.0455 7.01055 17.856 7.08606 17.6593 7.08426C17.4627 7.08246 17.2746 7.00349 17.1356 6.86437C16.9966 6.72525 16.9179 6.5371 16.9162 6.34045C16.9146 6.1438 16.9903 5.95439 17.127 5.813L17.47 5.47C17.6106 5.32955 17.8012 5.25066 18 5.25066C18.1988 5.25066 18.3894 5.32955 18.53 5.47ZM1.25 12C1.25 11.8011 1.32902 11.6103 1.46967 11.4697C1.61032 11.329 1.80109 11.25 2 11.25H4C4.19891 11.25 4.38968 11.329 4.53033 11.4697C4.67098 11.6103 4.75 11.8011 4.75 12C4.75 12.1989 4.67098 12.3897 4.53033 12.5303C4.38968 12.671 4.19891 12.75 4 12.75H2C1.80109 12.75 1.61032 12.671 1.46967 12.5303C1.32902 12.3897 1.25 12.1989 1.25 12ZM19.25 12C19.25 11.8011 19.329 11.6103 19.4697 11.4697C19.6103 11.329 19.8011 11.25 20 11.25H22C22.1989 11.25 22.3897 11.329 22.5303 11.4697C22.671 11.6103 22.75 11.8011 22.75 12C22.75 12.1989 22.671 12.3897 22.5303 12.5303C22.3897 12.671 22.1989 12.75 22 12.75H20C19.8011 12.75 19.6103 12.671 19.4697 12.5303C19.329 12.3897 19.25 12.1989 19.25 12ZM6.873 17.127C7.01345 17.2676 7.09234 17.4582 7.09234 17.657C7.09234 17.8558 7.01345 18.0464 6.873 18.187L6.53 18.53C6.38783 18.6625 6.19978 18.7346 6.00548 18.7312C5.81118 18.7277 5.62579 18.649 5.48838 18.5116C5.35097 18.3742 5.27225 18.1888 5.26883 17.9945C5.2654 17.8002 5.33752 17.6122 5.47 17.47L5.813 17.127C5.95363 16.9866 6.14425 16.9077 6.343 16.9077C6.54175 16.9077 6.73237 16.9866 6.873 17.127ZM17.127 17.127C17.2676 16.9866 17.4582 16.9077 17.657 16.9077C17.8558 16.9077 18.0464 16.9866 18.187 17.127L18.53 17.47C18.6037 17.5387 18.6628 17.6215 18.7038 17.7135C18.7448 17.8055 18.7668 17.9048 18.7686 18.0055C18.7704 18.1062 18.7518 18.2062 18.7141 18.2996C18.6764 18.393 18.6203 18.4778 18.549 18.549C18.4778 18.6203 18.393 18.6764 18.2996 18.7141C18.2062 18.7518 18.1062 18.7704 18.0055 18.7686C17.9048 18.7668 17.8055 18.7448 17.7135 18.7038C17.6215 18.6628 17.5387 18.6037 17.47 18.53L17.127 18.187C16.9866 18.0464 16.9077 17.8558 16.9077 17.657C16.9077 17.4582 16.9866 17.2676 17.127 17.127ZM12 19.25C12.1989 19.25 12.3897 19.329 12.5303 19.4697C12.671 19.6103 12.75 19.8011 12.75 20V22C12.75 22.1989 12.671 22.3897 12.5303 22.5303C12.3897 22.671 12.1989 22.75 12 22.75C11.8011 22.75 11.6103 22.671 11.4697 22.5303C11.329 22.3897 11.25 22.1989 11.25 22V20C11.25 19.8011 11.329 19.6103 11.4697 19.4697C11.6103 19.329 11.8011 19.25 12 19.25Z" fill="black"/>
<path d="M7 11.06C7 13.602 9.01 14.957 10.48 16.17C11 16.597 11.5 17 12 17C12.5 17 13 16.597 13.52 16.17C14.99 14.957 17 13.602 17 11.06C17 8.518 14.25 6.714 12 9.158C9.75 6.714 7 8.518 7 11.06Z" fill="black"/>
</svg>
