<svg width="15" height="15" viewBox="0 0 15 15" fill="none" xmlns="http://www.w3.org/2000/svg">
<path fill-rule="evenodd" clip-rule="evenodd" d="M7.49999 1.25C10.9513 1.25 13.75 4.04873 13.75 7.49999C13.75 10.9513 10.9513 13.75 7.49999 13.75C4.04873 13.75 1.25 10.9513 1.25 7.49999C1.25 4.04873 4.04873 1.25 7.49999 1.25ZM7.49999 2.50001C4.74315 2.50001 2.50001 4.74313 2.50001 7.49999C2.50001 10.2569 4.74313 12.5 7.49999 12.5C10.2569 12.5 12.5 10.2569 12.5 7.49999C12.5 4.74313 10.2569 2.50001 7.49999 2.50001ZM8.93314 5.18314L9.81688 6.06687L8.38376 7.49999L9.81688 8.93314L8.93314 9.81688L7.49999 8.38376L6.06687 9.81688L5.18314 8.93314L6.61625 7.49999L5.18314 6.06687L6.06687 5.18314L7.49999 6.61625L8.93314 5.18314Z" fill="white"/>
</svg>
