<svg width="20" height="20" viewBox="0 0 20 20" fill="none" xmlns="http://www.w3.org/2000/svg">
<path d="M14.7166 9.33333C14.525 9.08333 14.2916 8.86667 14.075 8.65C13.5166 8.15 12.8833 7.79167 12.35 7.26667C11.1083 6.05 10.8333 4.04167 11.625 2.5C10.8333 2.69167 10.1416 3.125 9.54998 3.6C7.39165 5.33333 6.54165 8.39167 7.55831 11.0167C7.59165 11.1 7.62498 11.1833 7.62498 11.2917C7.62498 11.475 7.49998 11.6417 7.33331 11.7083C7.14165 11.7917 6.94165 11.7417 6.78331 11.6083C6.73602 11.5687 6.69646 11.5207 6.66665 11.4667C5.72498 10.275 5.57498 8.56667 6.20831 7.2C4.81665 8.33333 4.05831 10.25 4.16665 12.0583C4.21665 12.475 4.26665 12.8917 4.40831 13.3083C4.52498 13.8083 4.74998 14.3083 4.99998 14.75C5.89998 16.1917 7.45831 17.225 9.13331 17.4333C10.9166 17.6583 12.825 17.3333 14.1916 16.1C15.7166 14.7167 16.25 12.5 15.4666 10.6L15.3583 10.3833C15.1833 10 14.7166 9.33333 14.7166 9.33333ZM12.0833 14.5833C11.85 14.7833 11.4666 15 11.1666 15.0833C10.2333 15.4167 9.29998 14.95 8.74998 14.4C9.74165 14.1667 10.3333 13.4333 10.5083 12.6917C10.65 12.025 10.3833 11.475 10.275 10.8333C10.175 10.2167 10.1916 9.69167 10.4166 9.11667C10.575 9.43333 10.7416 9.75 10.9416 10C11.5833 10.8333 12.5916 11.2 12.8083 12.3333C12.8416 12.45 12.8583 12.5667 12.8583 12.6917C12.8833 13.375 12.5833 14.125 12.0833 14.5833Z" fill="white"/>
</svg>
