<svg width="12" height="15" viewBox="0 0 12 15" fill="none" xmlns="http://www.w3.org/2000/svg">
<path d="M2.32761 4.59148C2.25636 5.35148 2.20636 6.69648 2.65511 7.26898C2.65511 7.26898 2.44386 5.79148 4.33761 3.93773C5.10011 3.19148 5.27636 2.17648 5.01011 1.41523C4.85886 0.983982 4.58261 0.627732 4.34261 0.378982C4.20261 0.232732 4.31011 -0.00851843 4.51386 0.000231571C5.74636 0.0552316 7.74386 0.397731 8.59261 2.52773C8.96511 3.46273 8.99261 4.42898 8.81511 5.41148C8.70261 6.03898 8.30261 7.43398 9.21511 7.60523C9.86636 7.72773 10.1814 7.21023 10.3226 6.83773C10.3814 6.68273 10.5851 6.64398 10.6951 6.76773C11.7951 8.01898 11.8889 9.49273 11.6614 10.7615C11.2214 13.214 8.73761 14.999 6.27011 14.999C3.18761 14.999 0.733864 13.2352 0.0976145 10.0427C-0.158636 8.75398 -0.0286353 6.20398 1.95886 4.40398C2.10636 4.26898 2.34761 4.38898 2.32761 4.59148Z" fill="url(#paint0_radial_193_950)"/>
<defs>
<radialGradient id="paint0_radial_193_950" cx="0" cy="0" r="1" gradientTransform="matrix(-8.82338 -0.0382934 -0.0629107 14.4774 5.65959 15.0378)" gradientUnits="userSpaceOnUse">
<stop offset="0.314" stop-color="#FF9800"/>
<stop offset="0.662" stop-color="#FF6D00"/>
<stop offset="0.972" stop-color="#F44336"/>
</radialGradient>
</defs>
</svg>
