<svg width="15" height="15" viewBox="0 0 15 15" fill="none" xmlns="http://www.w3.org/2000/svg">
<path d="M6.87563 6.25H8.12563V9.375H6.87563V6.25ZM6.875 10H8.125V11.25H6.875V10Z" fill="white"/>
<path d="M8.6052 2.62505C8.3877 2.21568 7.96395 1.9613 7.5002 1.9613C7.03645 1.9613 6.6127 2.21568 6.3952 2.62568L1.80895 11.2901C1.70742 11.4804 1.65715 11.6939 1.66307 11.9095C1.66898 12.1252 1.73089 12.3356 1.8427 12.5201C1.95295 12.7055 2.10975 12.8588 2.29755 12.965C2.48534 13.0711 2.69762 13.1263 2.91333 13.1251H12.0871C12.5296 13.1251 12.9302 12.8988 13.1583 12.5201C13.2701 12.3356 13.332 12.1252 13.338 11.9095C13.3439 11.6939 13.2936 11.4804 13.1921 11.2901L8.6052 2.62505ZM2.91333 11.8751L7.5002 3.21068L12.0902 11.8751H2.91333Z" fill="white"/>
</svg>
