<svg width="14" height="18" viewBox="0 0 14 18" fill="none" xmlns="http://www.w3.org/2000/svg">
<path fill-rule="evenodd" clip-rule="evenodd" d="M4.50001 4.83329C4.50001 4.17025 4.7634 3.53437 5.23224 3.06553C5.70108 2.59668 6.33697 2.33329 7.00001 2.33329C7.66305 2.33329 8.29894 2.59668 8.76778 3.06553C9.23662 3.53437 9.50001 4.17025 9.50001 4.83329V6.49996H4.50001V4.83329ZM2.83334 6.49996V4.83329C2.83334 3.72822 3.27233 2.66842 4.05373 1.88701C4.83513 1.10561 5.89494 0.666626 7.00001 0.666626C8.10508 0.666626 9.16489 1.10561 9.94629 1.88701C10.7277 2.66842 11.1667 3.72822 11.1667 4.83329V6.49996H12.8333C13.0544 6.49996 13.2663 6.58776 13.4226 6.74404C13.5789 6.90032 13.6667 7.11228 13.6667 7.33329V14.8333C13.6667 15.4963 13.4033 16.1322 12.9344 16.6011C12.4656 17.0699 11.8297 17.3333 11.1667 17.3333H2.83334C2.1703 17.3333 1.53442 17.0699 1.06558 16.6011C0.596736 16.1322 0.333344 15.4963 0.333344 14.8333V7.33329C0.333344 7.11228 0.421141 6.90032 0.577421 6.74404C0.733702 6.58776 0.945663 6.49996 1.16668 6.49996H2.83334ZM7.83334 11.9166C7.83334 11.5851 7.96504 11.2672 8.19946 11.0327C8.43388 10.7983 8.75182 10.6666 9.08334 10.6666H9.09168C9.4232 10.6666 9.74114 10.7983 9.97556 11.0327C10.21 11.2672 10.3417 11.5851 10.3417 11.9166V11.925C10.3417 12.2565 10.21 12.5744 9.97556 12.8088C9.74114 13.0433 9.4232 13.175 9.09168 13.175H9.08334C8.75182 13.175 8.43388 13.0433 8.19946 12.8088C7.96504 12.5744 7.83334 12.2565 7.83334 11.925V11.9166Z" fill="#D8D8D8"/>
</svg>
