<svg width="24" height="24" viewBox="0 0 24 24" fill="none" xmlns="http://www.w3.org/2000/svg">
<path d="M19.5 3H4.5C4.10218 3 3.72064 3.15804 3.43934 3.43934C3.15804 3.72064 3 4.10218 3 4.5V19.5C3 19.8978 3.15804 20.2794 3.43934 20.5607C3.72064 20.842 4.10218 21 4.5 21H19.5C19.8978 21 20.2794 20.842 20.5607 20.5607C20.842 20.2794 21 19.8978 21 19.5V4.5C21 4.10218 20.842 3.72064 20.5607 3.43934C20.2794 3.15804 19.8978 3 19.5 3ZM9.75 17.25H6C5.80109 17.25 5.61032 17.171 5.46967 17.0303C5.32902 16.8897 5.25 16.6989 5.25 16.5C5.25 16.3011 5.32902 16.1103 5.46967 15.9697C5.61032 15.829 5.80109 15.75 6 15.75H9.75C9.94891 15.75 10.1397 15.829 10.2803 15.9697C10.421 16.1103 10.5 16.3011 10.5 16.5C10.5 16.6989 10.421 16.8897 10.2803 17.0303C10.1397 17.171 9.94891 17.25 9.75 17.25ZM5.25 12C5.25 11.8011 5.32902 11.6103 5.46967 11.4697C5.61032 11.329 5.80109 11.25 6 11.25H9C9.19891 11.25 9.38968 11.329 9.53033 11.4697C9.67098 11.6103 9.75 11.8011 9.75 12C9.75 12.1989 9.67098 12.3897 9.53033 12.5303C9.38968 12.671 9.19891 12.75 9 12.75H6C5.80109 12.75 5.61032 12.671 5.46967 12.5303C5.32902 12.3897 5.25 12.1989 5.25 12ZM15.1678 17.3981C15.1157 17.4242 15.0583 17.4378 15 17.4378C14.9417 17.4378 14.8843 17.4242 14.8322 17.3981C14.6859 17.325 11.25 15.5784 11.25 13.125C11.2502 12.6867 11.39 12.2599 11.6491 11.9065C11.9082 11.553 12.2731 11.2913 12.691 11.1592C13.1089 11.0272 13.558 11.0316 13.9732 11.172C14.3884 11.3124 14.748 11.5814 15 11.94C15.252 11.5814 15.6116 11.3124 16.0268 11.172C16.442 11.0316 16.8911 11.0272 17.309 11.1592C17.7269 11.2913 18.0918 11.553 18.3509 11.9065C18.61 12.2599 18.7498 12.6867 18.75 13.125C18.75 15.5784 15.3141 17.325 15.1678 17.3981ZM18 8.25H6C5.80109 8.25 5.61032 8.17098 5.46967 8.03033C5.32902 7.88968 5.25 7.69891 5.25 7.5C5.25 7.30109 5.32902 7.11032 5.46967 6.96967C5.61032 6.82902 5.80109 6.75 6 6.75H18C18.1989 6.75 18.3897 6.82902 18.5303 6.96967C18.671 7.11032 18.75 7.30109 18.75 7.5C18.75 7.69891 18.671 7.88968 18.5303 8.03033C18.3897 8.17098 18.1989 8.25 18 8.25Z" fill="#A1A1A1"/>
</svg>
