<svg width="24" height="24" viewBox="0 0 24 24" fill="none" xmlns="http://www.w3.org/2000/svg">
<path d="M4 9.657C4 8.839 4 8.431 4.152 8.063C4.304 7.696 4.594 7.406 5.172 6.828L5.828 6.172C6.406 5.594 6.696 5.304 7.063 5.152C7.43 5 7.84 5 8.657 5H15.343C16.161 5 16.569 5 16.937 5.152C17.304 5.304 17.593 5.594 18.172 6.172L18.828 6.828C19.407 7.406 19.695 7.696 19.848 8.063C20 8.431 20 8.839 20 9.657V16C20 17.886 20 18.828 19.414 19.414C18.828 20 17.886 20 16 20H8C6.114 20 5.172 20 4.586 19.414C4 18.828 4 17.886 4 16V9.657Z" stroke="#A1A1A1" stroke-width="2"/>
<path d="M4 10H20" stroke="#A1A1A1" stroke-width="2" stroke-linecap="round"/>
<path d="M14.833 9H9.16602C8.93102 9 8.81302 9 8.74002 9.073C8.66702 9.146 8.66602 9.264 8.66602 9.5V13.667C8.66602 14.432 8.66602 14.814 8.76602 15.019C8.87267 15.2404 9.05714 15.4148 9.2842 15.5089C9.51126 15.603 9.76501 15.6101 9.99701 15.529C10.212 15.454 10.483 15.184 11.024 14.643C11.274 14.393 11.399 14.267 11.532 14.197C11.6761 14.1208 11.8366 14.081 11.9995 14.081C12.1625 14.081 12.323 14.1208 12.467 14.197C12.6 14.267 12.726 14.393 12.977 14.643C13.517 15.183 13.787 15.454 14.003 15.53C14.235 15.6111 14.4888 15.604 14.7158 15.5099C14.9429 15.4158 15.1274 15.2414 15.234 15.02C15.334 14.814 15.334 14.432 15.334 13.667V9.5C15.334 9.264 15.334 9.146 15.26 9.073C15.187 9 15.069 9 14.833 9Z" fill="#A1A1A1"/>
</svg>
