<svg width="25" height="25" viewBox="0 0 25 25" fill="none" xmlns="http://www.w3.org/2000/svg">
<path d="M12.1127 22.2066C10.7163 22.2066 9.40414 21.9414 8.17605 21.4112C6.94796 20.8809 5.87969 20.1619 4.97124 19.2541C4.06278 18.3463 3.34376 17.2781 2.81417 16.0493C2.28458 14.8205 2.01944 13.5083 2.01877 12.1127C2.0181 10.717 2.28323 9.40481 2.81417 8.17605C3.34511 6.94728 4.06413 5.87901 4.97124 4.97123C5.87834 4.06346 6.94661 3.34443 8.17605 2.81417C9.40549 2.2839 10.7177 2.01877 12.1127 2.01877H13.1221V10.3715C13.4249 10.5565 13.6688 10.7964 13.8539 11.0912C14.0389 11.3859 14.1314 11.7264 14.1314 12.1127C14.1314 12.6678 13.9339 13.1433 13.5389 13.5389C13.1439 13.9346 12.6685 14.1321 12.1127 14.1314C11.5568 14.1308 11.0817 13.9333 10.6874 13.5389C10.2931 13.1446 10.0952 12.6692 10.0939 12.1127C10.0939 11.7257 10.1864 11.3809 10.3715 11.078C10.5565 10.7752 10.8005 10.5397 11.1033 10.3715V8.20128C10.2285 8.43681 9.50508 8.91223 8.93309 9.62755C8.3611 10.3429 8.07511 11.1712 8.07511 12.1127C8.07511 13.223 8.47045 14.1735 9.26114 14.9642C10.0518 15.7549 11.0023 16.1502 12.1127 16.1502C13.223 16.1502 14.1735 15.7549 14.9642 14.9642C15.7549 14.1735 16.1502 13.223 16.1502 12.1127C16.1502 11.507 16.0281 10.9478 15.7838 10.4351C15.5395 9.92229 15.2075 9.4721 14.7876 9.0845L16.2259 7.64612C16.8147 8.20128 17.2858 8.86176 17.6391 9.62755C17.9924 10.3933 18.169 11.2217 18.169 12.1127C18.169 13.795 17.5802 15.225 16.4026 16.4026C15.225 17.5802 13.795 18.169 12.1127 18.169C10.4304 18.169 9.00038 17.5802 7.82276 16.4026C6.64514 15.225 6.05633 13.795 6.05633 12.1127C6.05633 10.5986 6.53579 9.28234 7.49471 8.16393C8.45363 7.04553 9.65649 6.36823 11.1033 6.13203V4.08802C9.10132 4.34037 7.42304 5.22358 6.06844 6.73767C4.71384 8.25175 4.03688 10.0434 4.03755 12.1127C4.03755 14.367 4.81983 16.2764 6.38438 17.841C7.94894 19.4055 9.85836 20.1878 12.1127 20.1878C14.367 20.1878 16.2764 19.4055 17.841 17.841C19.4055 16.2764 20.1878 14.367 20.1878 12.1127C20.1878 10.9519 19.9607 9.86677 19.5065 8.85738C19.0522 7.84799 18.4298 6.97319 17.6391 6.23297L19.0775 4.79459C20.0364 5.71986 20.7978 6.80933 21.3617 8.06299C21.9256 9.31666 22.2072 10.6665 22.2066 12.1127C22.2066 13.509 21.9414 14.8212 21.4112 16.0493C20.8809 17.2774 20.1619 18.3456 19.2541 19.2541C18.3463 20.1626 17.2781 20.8819 16.0493 21.4122C14.8205 21.9424 13.5083 22.2072 12.1127 22.2066Z" fill="#A1A1A1"/>
</svg>
