<svg width="16" height="16" viewBox="0 0 16 16" fill="none" xmlns="http://www.w3.org/2000/svg">
<path d="M2.16062 1.28125L1.28125 2.12031V13.8844L2.0975 14.7188H13.8844L14.7188 13.8844V2.11656L13.8844 1.28125H2.16062ZM7.71875 2.25219V3.5H8.28125V2.25219C9.07188 2.26156 9.85938 2.30937 10.6125 2.39687L10.2281 3.93125L10.7719 4.06875L11.1719 2.47031C12.0219 2.59438 12.8125 2.77094 13.5 3L12 6.5C11.1844 6.29688 10.0344 6.175 8.82812 6.1375C8.95625 6.30937 9.03125 6.52187 9.03125 6.75C9.03125 7.31563 8.56563 7.78125 8 7.78125C7.43437 7.78125 6.96875 7.31563 6.96875 6.75C6.96875 6.52187 7.04375 6.30937 7.17188 6.1375C5.9625 6.175 4.81562 6.29688 4 6.5L2.5 3C3.1875 2.77094 3.97813 2.59438 4.82812 2.47031L5.22813 4.06875L5.77187 3.93125L5.3875 2.39687C6.14062 2.30937 6.92812 2.26156 7.71875 2.25219ZM6.75938 2.88937L6.24062 3.11063L7.43125 5.89062C7.59063 5.7875 7.775 5.725 7.975 5.71875L6.75938 2.88937ZM8 6.28125C7.7375 6.28125 7.53125 6.4875 7.53125 6.75C7.53125 7.0125 7.7375 7.21875 8 7.21875C8.2625 7.21875 8.46875 7.0125 8.46875 6.75C8.46875 6.4875 8.2625 6.28125 8 6.28125ZM4 11.2188H12V11.7812H4V11.2188ZM4 12.7188H12V13.2812H4V12.7188Z" fill="#A1A1A1"/>
</svg>
